<svg xmlns="http://www.w3.org/2000/svg" xmlns:xlink="http://www.w3.org/1999/xlink" width="252" height="195" viewBox="0 0 252 195">
    <defs>
        <filter id="kung2b1rza" width="122.3%" height="104.5%" x="-16.7%" y="-2.2%" filterUnits="objectBoundingBox">
            <feOffset dx="-6" in="SourceAlpha" result="shadowOffsetOuter1"/>
            <feColorMatrix in="shadowOffsetOuter1" values="0 0 0 0 1 0 0 0 0 0.341176471 0 0 0 0 0.133333333 0 0 0 0.2 0"/>
        </filter>
        <filter id="xfhde1oznc" width="120.1%" height="103.3%" x="-5%" y="-1.7%" filterUnits="objectBoundingBox">
            <feOffset dx="6" in="SourceAlpha" result="shadowOffsetOuter1"/>
            <feColorMatrix in="shadowOffsetOuter1" values="0 0 0 0 1 0 0 0 0 0.341176471 0 0 0 0 0.133333333 0 0 0 0.2 0"/>
        </filter>
        <path id="cjw2pyk5zb" d="M65.422 59.792c17.539 0 31.79 14.076 32.074 31.548l.004.53V194h-13V91.87c0-10.536-8.542-19.078-19.078-19.078-4.676 0-9.183 1.717-12.67 4.815l-.325.295-8.854-9.519c5.936-5.521 13.742-8.59 21.849-8.59z"/>
        <path id="x7bhwgmeed" d="M214.982 13.878c19.967 0 36.19 16.024 36.513 35.914l.005.604V194h-13V50.396c0-12.988-10.53-23.518-23.518-23.518-5.255 0-10.354 1.76-14.487 4.992l-.385.308-8.22-10.07c6.519-5.323 14.677-8.23 23.092-8.23z"/>
    </defs>
    <g fill="none" fill-rule="evenodd">
        <g>
            <g>
                <g>
                    <path fill="#FFF" d="M39 107H229V194H39z" transform="translate(-770 -360) translate(190 60) translate(580 300)"/>
                    <path fill="#FF5722" fill-rule="nonzero" d="M128.096 176.884c1.907 0 3.52-.675 4.84-2.024 1.35-1.379 2.024-3.05 2.024-5.016 0-1.936-.667-3.579-2.002-4.928-1.335-1.35-2.955-2.024-4.862-2.024s-3.527.675-4.862 2.024c-1.335 1.35-2.002 2.992-2.002 4.928 0 1.965.667 3.63 2.002 4.994 1.335 1.364 2.955 2.046 4.862 2.046zm2.024 17.16l16.588-30.888h-4.62L125.5 194.044h4.62zm-2.024-20.504c-.968 0-1.79-.352-2.464-1.056-.675-.733-1.012-1.613-1.012-2.64 0-1.027.337-1.892 1.012-2.596.675-.704 1.496-1.056 2.464-1.056s1.79.352 2.464 1.056c.675.704 1.012 1.57 1.012 2.596 0 1.027-.337 1.9-1.012 2.618-.675.719-1.496 1.078-2.464 1.078zm16.148 20.768c1.907 0 3.52-.675 4.84-2.024 1.35-1.379 2.024-3.036 2.024-4.972 0-1.936-.667-3.586-2.002-4.95-1.335-1.364-2.955-2.046-4.862-2.046s-3.527.682-4.862 2.046c-1.335 1.364-2.002 3.014-2.002 4.95 0 1.965.667 3.623 2.002 4.972 1.335 1.35 2.955 2.024 4.862 2.024zm0-3.3c-.968 0-1.79-.352-2.464-1.056-.675-.733-1.012-1.613-1.012-2.64 0-1.027.337-1.892 1.012-2.596.675-.704 1.496-1.056 2.464-1.056s1.79.352 2.464 1.056c.675.704 1.012 1.57 1.012 2.596 0 1.027-.337 1.9-1.012 2.618-.675.719-1.496 1.078-2.464 1.078z" transform="translate(-770 -360) translate(190 60) translate(580 300)"/>
                    <path fill="#FFF" d="M25 87H243V107H25z" transform="translate(-770 -360) translate(190 60) translate(580 300)"/>
                    <path fill="#5D6977" fill-rule="nonzero" d="M166.088 27.384l1.968-1.944-1.968-1.968-1.944 1.968 1.944 1.944zm4.8 0l1.968-1.944-1.968-1.968-1.944 1.968 1.944 1.944zM166.76 39c1.792 0 3.168-.588 4.128-1.764.96-1.176 1.192-2.684.696-4.524l-1.008-3.744-2.904.864.936 3.576c.224.816.18 1.384-.132 1.704-.312.32-.884.48-1.716.48h-3.672V39h3.672zm-3.432 0v-3.408h-.24c-.816 0-1.316-.104-1.5-.312-.184-.208-.284-.784-.3-1.728l-.432-11.184-3.024.144.432 11.04c.08 2 .48 3.408 1.2 4.224.72.816 1.928 1.224 3.624 1.224h.24zm-30.456.168l3.024-.336-1.536-15.72-3.024.336 1.536 15.72zm11.688-.936c1.28 0 2.368-.468 3.264-1.404.896-.936 1.344-2.06 1.344-3.372 0-1.312-.448-2.432-1.344-3.36-.896-.944-1.984-1.416-3.264-1.416-1.264 0-2.344.468-3.24 1.404-.896.936-1.344 2.06-1.344 3.372 0 1.312.448 2.436 1.344 3.372.896.936 1.976 1.404 3.24 1.404zm0-3.192c-.464 0-.868-.156-1.212-.468-.344-.312-.516-.684-.516-1.116 0-.432.172-.804.516-1.116.344-.312.748-.468 1.212-.468.48 0 .892.152 1.236.456.344.304.516.68.516 1.128 0 .448-.176.824-.528 1.128-.336.304-.744.456-1.224.456zm-25.872-8.496c.528 0 .984-.196 1.368-.588.384-.392.576-.86.576-1.404 0-.544-.192-1.008-.576-1.392-.384-.384-.84-.576-1.368-.576-.56 0-1.032.188-1.416.564-.384.376-.576.844-.576 1.404 0 .56.192 1.032.576 1.416.384.384.856.576 1.416.576zm2.928 12.432l5.472-16.392h-3.576l-5.472 16.392h3.576zm4.896.024c.544 0 1.008-.196 1.392-.588.384-.392.576-.86.576-1.404 0-.544-.192-1.008-.576-1.392-.384-.384-.848-.576-1.392-.576-.56 0-1.032.188-1.416.564-.384.376-.576.844-.576 1.404 0 .56.192 1.032.576 1.416.384.384.856.576 1.416.576zM104 27.384l1.968-1.944L104 23.472l-1.944 1.968L104 27.384zm4.8 0l1.968-1.944-1.968-1.968-1.944 1.968 1.944 1.944zM104.672 39c1.792 0 3.168-.588 4.128-1.764.96-1.176 1.192-2.684.696-4.524l-1.008-3.744-2.904.864.936 3.576c.224.816.18 1.384-.132 1.704-.312.32-.884.48-1.716.48H101V39h3.672zm-13.68-12.288l2.232-2.208-2.232-2.232-2.208 2.232 2.208 2.208zM84.728 39c2.544 0 5.024-.368 7.44-1.104l3.744-1.152c.384.688.916 1.236 1.596 1.644.68.408 1.412.612 2.196.612h1.536v-3.408h-1.536c-.16 0-.352-.032-.576-.096l.432-3.576-6.144-3.264c-1.312-.72-2.628-.892-3.948-.516-1.32.376-2.396 1.26-3.228 2.652l-.48.864 2.64 1.656.432-.768c.336-.56.788-.928 1.356-1.104.568-.176 1.148-.112 1.74.192l3.984 1.8-4.608 1.2c-2.32.608-4.504.928-6.552.96h-.144V39h.12zM79.28 26.256l2.208-2.232-2.208-2.208-2.208 2.208 2.208 2.232zM74.096 39c1.536 0 3.144-.296 4.824-.888 1.568.592 3.08.888 4.536.888h1.392v-3.408h-1.8c.368-.464.56-.912.576-1.344l.072-1.104c.08-1.28-.272-2.44-1.056-3.48s-1.8-1.624-3.048-1.752c-1.312-.144-2.476.196-3.492 1.02-1.016.824-1.596 1.908-1.74 3.252l-.144 1.416c-.064.608.176 1.264.72 1.968-.192.016-.472.024-.84.024h-1.248V39h1.248zm4.728-4.152c-.736-.304-1.264-.672-1.584-1.104l.096-.984c.032-.464.232-.84.6-1.128.368-.288.792-.408 1.272-.36.464.064.844.28 1.14.648.296.368.412.768.348 1.2l-.096.768c-.176.336-.768.656-1.776.96zM66.944 39c1.264 0 2.304-.32 3.12-.96.768.64 1.776.96 3.024.96v-3.408c-.576 0-.964-.08-1.164-.24-.2-.16-.332-.496-.396-1.008V34.2l-.264-2.952-3.024.288.264 2.952v.048c.032.384-.064.656-.288.816-.224.16-.648.24-1.272.24H62.72V39h4.224zm-2.016 5.544l1.968-1.968-1.968-1.968-1.944 1.968 1.944 1.968zm4.8 0l1.968-1.968-1.968-1.968-1.944 1.968 1.944 1.968zm-12.144-17.64l2.208-2.232-2.208-2.208-2.208 2.208 2.208 2.232zM52.208 39c1.536 0 3.144-.296 4.824-.888 1.568.592 3.08.888 4.536.888h1.392v-3.408h-1.8c.368-.464.56-.912.576-1.344l.072-1.104c.08-1.28-.272-2.44-1.056-3.48s-1.8-1.624-3.048-1.752c-1.312-.144-2.476.196-3.492 1.02-1.016.824-1.596 1.908-1.74 3.252l-.144 1.416c-.064.608.176 1.264.72 1.968-.192.016-.472.024-.84.024h-1.505c-2.224-.003-3.722-.035-4.495-.096-.816-.064-1.4-.168-1.752-.312-.384-.176-.624-.38-.72-.612-.096-.232-.08-.588.048-1.068l.936-3.624-2.928-.888-.912 3.504c-.336 1.312-.296 2.488.12 3.528s1.168 1.8 2.256 2.28c.688.304 1.492.496 2.412.576.92.08 2.684.12 5.292.12h1.248zm4.728-4.152c-.736-.304-1.264-.672-1.584-1.104l.096-.984c.032-.464.232-.84.6-1.128.368-.288.792-.408 1.272-.36.464.064.844.28 1.14.648.296.368.412.768.348 1.2l-.096.768c-.176.336-.768.656-1.776.96z" transform="translate(-770 -360) translate(190 60) translate(580 300)"/>
                    <path fill="#FF5722" fill-opacity=".1" d="M39 107H229V117H39z" transform="translate(-770 -360) translate(190 60) translate(580 300)"/>
                    <g fill-rule="nonzero" transform="translate(-770 -360) translate(190 60) translate(580 300)">
                        <use fill="#000" filter="url(#kung2b1rza)" xlink:href="#cjw2pyk5zb"/>
                        <use fill="#FF5722" xlink:href="#cjw2pyk5zb"/>
                    </g>
                    <g fill-rule="nonzero" transform="translate(-770 -360) translate(190 60) translate(580 300) matrix(-1 0 0 1 443.39 0)">
                        <use fill="#000" filter="url(#xfhde1oznc)" xlink:href="#x7bhwgmeed"/>
                        <use fill="#FF5722" xlink:href="#x7bhwgmeed"/>
                    </g>
                    <path fill="#0065DC" fill-opacity=".1" d="M11.552 35.78s-3.17 1.036-3.937 1.795c-.776.774-1.835 3.971-1.835 3.971s-1.052-3.19-1.758-3.895C3.285 36.915 0 35.773 0 35.773s2.855-1.242 3.623-2.016C4.3 33.082 5.773 30 5.773 30s1.65 3.25 2.379 3.979c.714.728 3.4 1.802 3.4 1.802M45.552 7.782s-4.267 1.394-5.3 2.415c-1.045 1.043-2.47 5.347-2.47 5.347s-1.416-4.294-2.367-5.243C34.423 9.31 30 7.77 30 7.77s3.844-1.671 4.878-2.714C35.788 4.15 37.772 0 37.772 0s2.22 4.376 3.203 5.357c.96.98 4.577 2.425 4.577 2.425" transform="translate(-770 -360) translate(190 60) translate(580 300)"/>
                </g>
            </g>
        </g>
    </g>
</svg>
