<svg xmlns="http://www.w3.org/2000/svg" viewBox="0 0 39.29 23.87"><defs><style>.cls-1{fill:#00377b;}</style></defs><title>Asset 27</title><g id="Layer_2" data-name="Layer 2"><g id="Layer_1-2" data-name="Layer 1"><path class="cls-1" d="M39.26,2a2,2,0,0,0-2-2h0L2,0a2,2,0,0,0-2,2l0,19.8a2,2,0,0,0,2,2H2l35.24,0a2,2,0,0,0,2-2ZM35,2,19.65,12.72,4.22,2.06ZM26.15,14.73l9.13,7.08L4,21.86l9.18-7.12a1,1,0,1,0-1.23-1.59L2,20.82,2,3,19.07,14.77a1,1,0,0,0,1.15,0l17-11.84,0,17.88-9.89-7.67a1,1,0,0,0-1.23,1.59Z"/></g></g></svg>