<svg xmlns="http://www.w3.org/2000/svg" xmlns:xlink="http://www.w3.org/1999/xlink" width="936" height="306" viewBox="0 0 936 306">
    <defs>
        <path id="a" d="M0 0h936v306H0z"/>
    </defs>
    <g fill="none" fill-rule="evenodd">
        <mask id="b" fill="#fff">
            <use xlink:href="#a"/>
        </mask>
        <use fill="#F8F8F9" xlink:href="#a"/>
        <g fill="#000" fill-opacity=".05" stroke="#FFF" stroke-width=".5" mask="url(#b)">
            <path d="M464.318 65.38l-5.117-.546-2.439.203-.624.941 1.097 1.513.796.681 1.529.458.993.858-.681 2.304-1.03 2.147-.255.978-.738.707-4.358 2.132-1.185 1.144-.266 1.035.177.816.546 1.222.463.77.93.218 2.17.135 2.11.624 1.238 1.118.546.318.218-.396v-.442l-.832-1.154.276-.718 1.212.016.832.988-.01 1.466.155.88.614-.12.598-1.222.988-.094.567-1.31 1.388-.858 1.128-1.389.609-1.607 1.908-.104.265-1.284.084-1.716 1.305-1.503 1.737-.645 1.731.219 1.217-.754v-1.503l.073-1.123-1.399-1.649-3.526-.785-.904-.395-.817-.754-.39-.567-1.373-.546zM615.684 186.93l-23.093-9.948-2.745-.488-.468.712-.988 1.071-4.478 2.533-1.518 1.622-11.43 6.042-.956 2.044-.276 7.93-.322 1.747-3.646 1.612-4.06.557-1.764-.364-2.756-.104-12.095 2.147-1.893 2.117-.993 1.892-.478 1.826.057 1.237 1.201 2.278 1.274 3.349.51 2.49.691.848.697.478-.27 8.07.229 1.415.296.988.02.702-.675.489-2.174.265-.213.182-.952.421v.49l.583 1.96 1.752 3.634.245.947.468.832.51.52.966.619 4.93.452 1.248.536 4.352 10.816 1.83.135 3.885 1.107 1.93 1.508.935 1.233.947.66.962.479 1.102-.286 4.306-3.271 2.532-1.186.64-.083.608.9.411 9.344-.53 1.81.447 2.392 1.924 2.485 1.846 1.7 2.21 1.342 2.563.39 1.378-.244 2.533-1.253 2.324-2.216.66-.806.989-.785 1.17.047 2.246 1.102.172.39-.193 2.502.785 3.79.312.515.427.359.66.088 1.118.609.858 1.118.505.967.982 1.071.973 1.482.14 1.222-.593.5-.38.748.49.707.577.297.582 1.19.655 1.904.676 9.058.437 1.404 6.646 3.531 1.461 1.076.65.198 1.009-.952.52-.717.879-.598 1.42.036 1.481.89 1.607 1.351 1.264 1.467.618 1.336-.182.463-1.352-.827-.462-.02-.021.478.52 1.544.026.614-.12.4-.39.484-.301.743-.5 4.69.125.698v.691l-.255 1.342-.436.54.036.49 2.855-.203 1.763.317 1.164-.11.744-.353.76.177.82.374 1.348.208.4.26-.031.26-.203.437.052.468.218.53.063.75.364.644.884.203 1.071.036.92-.114.635-.671.629-.156.837.328.583-.006.312.26.878 1.326.427-1.045.13-.889-.016-1.482.265-.624.292-.385-.042-.78.406-.494.348-.925-.187-.92-.744-.885-.4-1.399.535-1.107.687-.822-.016-.821-.691-.63-.349-.55.603-1.04.609-1.831-1.134-2.304-1.638-1.887-.442-1.644.068-1.554-.083-.905-.515-2.028-.01-2.397 2.48-9.73.286-2.782-.146-8.44 2.48-3.244.666-2.21-.764-1.243-1.768-1.341-.801-1.238 1.248-.666 2.444-.832 5.008-2.917.972-.77.63-.686.036-.905-.224-.956-.63-1.321-.03-2.018-.307-1.633.307-1.586 1.804-2.76.66-2.44.063-2.152-.744-5.221-.858-2.174-.972-.64-.51-.54.193-2.06 4.414-20.54-8.59-12.526-3.089-2.304z"/>
            <path d="M692.655 347.912l.504-.671-.312-.219 1.175-.353.307-.167.172-.16.026-.094v-.125l.099-.25.332-.437.12-.228-.177-.208-.213-.12-.504-.161.462-.359.36.005.348.14.457.053-.12-.11-.213-.25-.12-.114.068-.145.032-.385.062-.135.208-.135.104.072.068.146.374.27.042.4.14.35v-.006l.681-1.981.13-2.007.151-2.372.13-2.043.088-1.389.073-.343.13-.229.312-.317.14-.187.063-.822-.24-.946-.108-.879.452-.629.458-.11.416.011.374-.088.328-.4.12-.422.228-1.669.27-1.992.203-1.487.172-1.29.197-1.455.182-.744.312-.65.526-.406 2.594-.738.77-.515.4-.197.442-.14.895-.146.192-.25.078-.593.364-.582.811.109.957.338.806.114.468-.25-.02-.337-.209-.442-.12-.551.157-.297.676-.67.223-.417-.02-.15-.084-.136-.067-.156.041-.213.136-.182.187-.114.421-.172.177-.099.275-.202.177-.078.203-.021.458.02.218-.062.125-.114.177-.312.171-.13.203-.063 3.604-.38.436-.155.182-.14.167-.177.187-.115.229.047.244.114.182.016.666-.15.182-.074.161-.083.146-.114.223-.411.161-.218.234-.068 1.467.036 1.685.042 1.95.047.837.13.847.026.63-.14.202.015.188.088.156.11.166.088.218.01.484-.473.229-.962.166-3.5.161-.379.354-.187.874-.14.322-.297.068-.442-.177-.39-.27-.39-.193-.452-.11-2.725.032-.286.088-.245.23-.327.082-.245.234-.384.422-.188h.473l.369.146-.733-1.628-.307-.457-.229-.25-.197-.125-.53-.192-.245-.156-.557-.51-.27-.098-.218-.006-1.176.375-.275.01-.359-.036-.572.026-1.128.348-.562.089-1.253.25-.583.03-.68-.145-.505-.281-.172-.057-.15.026-.297.171-.172.006-.322-.177-.93-.832.342-.021.208-.161.13-.27.104-.349.037-.39-.104-.265-.421-.51 1.128-2.553.13-1.009-.114-1.263-.208-2.242-.104-1.216-.182-1.966-.13-1.446-.562-2.34-.4-1.684.348-2.777.312-2.507-.104-.852-.478-.292-3.52.718-.438-.276-1.357-1.476-.312-.53-.14-.422-.151-.25-.224-.145-.358-.115-.349-.197-.218-.297-.187-.327-.25-.297-.598-.312-2.84-.577-1.793-.8-.687-.151-1.43-.12-.65-.208-1.03-.593-1.284-.364-.4-.213-.681-.79-1.363-1.27-.894-1.164-2.22-2.018-.624-.77-.62-1.351-.618-.697-.114-.364-.047-.416-.125-.478-.91-2.096-.192-.255-.24-.187-.275-.13-.167-.13-.052-.14.063-.151.156-.161.197-.214.073-.223-.062-.213-.208-.167-.37-.156-.166-.359-.114-.42-.219-.35-.234-.124-.197-.026-.198-.068-.229-.26-.109-.28-.057-.614-.068-.28-.275-.422-.687-.76-.202-.498v-.484l.254-.868.042-.479-.198-.629-.38-.27-.452-.177-.42-.349-1.774-2.116-1.68-2.018-1.622-1.944-1.41-1.69-1.138-1.347-1.737-2.065 1.248-1.456 1.633-1.918.005-.006 3.328-3.978 1.779-2.126 1.216-1.456 2.33-2.793 1.747-2.106 2.465-2.98 2.72-3.296 1.778-2.153.364-.39-.052-.135-.026-.026.031-.453.052-.176.13-.073-.083-1.711-.094-.296.411-.812.156-.53-.005-.494-.104-.5-.26-.82-.38-.796-.052-.266-.036-.733-.182-.567-.577-.956-.208-.515-.01-.5.15-1.081-.15-.468-.77-.978-.421-.338-.552-.218-1.185-.172-2.48-.364-4.223-.618-3.65-.536.39 1.466-.297 3.032-1.378 3.323-1.019 3.681-.447 6.552.088 1.909 1.092 4.851-.036.78-.338.515-.728.291-2.928.104-1.763-1.518-3.385-4.836-2.652-1.955-1.991-.546-.494-.395-.76-.801-1.17-.213-16.146 4.586-.676.328-4.414 20.54-.193 2.059.51.54.972.64.858 2.174.744 5.22-.063 2.153-.66 2.44-1.804 2.76-.307 1.586.307 1.633.03 2.018.63 1.32.224.957-.037.905-.629.687-.972.77-5.008 2.916-2.444.832-1.248.666.8 1.238 1.769 1.341.764 1.243-.665 2.21-2.48 3.245.145 8.44-.286 2.781-2.48 9.73.01 2.397.515 2.028.083.905-.068 1.554.442 1.644 1.638 1.887 1.134 2.304-.609 1.83-.603 1.04.349.551.691.63.016.821-.687.822-.535 1.107.4 1.4.744.883.187.92-.348.926-.406.494.042.78-.292.385-.265.624.016 1.482-.13.89-.427 1.044-.254.14-.39.594-.104.764.083.437.296.125.765.483 4.076 3.614.697 1.139.115.863.473.484.65.25.353.436.14.489.297.38.359.353.76 1.3.176.24.4.197-.057.385-.01.359-.567.244.094.567.603-.094 2.543-.41 1.216-.235.786.437 1.024 1.04 1.638.38.972.01 2.486-.156.972.255.9.863.905.312.795-.598 1.155-.047 1.097-.166.79-.047.338.182.24.312.166.125.738.11.234.077.432.291.588.006.145-.448-.452-.306-.052-.115v-.14l.192-.219.125-.046.598-.12.78-.036.39.057.312.145-.094.094-.202.38.624.51.936-.016.431.244.879.364.692.291.25.057.056-.301-.618-.323v-.052l.239.032-.229-.245-.088-.15-.089-.058h-.187l-.24-.114-.145-.016-.104-.067-.083-.484-.068-.15.006-.157.171-.26.338-.41.203-.323.37-.203 1.476-.457.385-.037.38.047.332.198.785.774.068.214.005 1.336.068.317.52.754-.333.307.359.192 2.028.255 2.99.707 3.525.588 3.006 1.082.328.587-.01.39 1.258.27zM608.4 22.1l-3.1-1.232-.54-.728.42-1.44.058-.458-.11-.478-.457-.656-.25-.821-.707-.765-.25-.38-.39-.946-.499-.847-.088-.24-.01-.202-.058-.177-.239-.156-.463-.161-.234-.026-.234.026-.374.187-.187.203-.068.073-.432.754-.254.275-.697.468-.302.265-.39.219-.437-.068-.852-.353-3.24-.609-.333-.109-.738-.426-.843-.687-.208-.041-1.03.176-1.726.76-.343.062-.291-.135-.27-.213-.302-.188-.37-.088-1.97.062-.78.302-.728.51-1.357 1.263-.135.375.587.67.099.479-.073.504-.218.432-.338.255-1.841.306-.354-.046-.665-.276.145 1.914-.14.774.057.988.255 1.15-.02.644-.438 1.758.047 1.238.733.868 1.014.504.88.676.4 1.66-1.186 1.648-2.522.873-.572.089-.65.296-.655.603-1.565.65-1.576 2.793-.65.634 3.255 4.342 1.529 1.082.848-.151 1.05.442-.229.619-1.253.374-.556.447-.136.395.14.214.141.29.104.713-.109 1.825-.406 1.612-.078.541.406.848 2.548 2.87 2.439 2.106 1.217.4 2.048.354 1.072.411 3.276-.556.067-.728-.166-.952.171-1.222 1.243-1.659 5.18-4.212 3.437.167 14.248 7.924 5.959.916 1.633-.406.806-.76.717-2.095-.177-.842-.77-.458-.28-.426.14-.749 1.274-1.373-.078-.624-.712-.348-.432-.66-.182-.692-.28.125-.312.816-.578.088-.384-.759-.598-.655-1.05-.733-.105-.941.874-1.087 1.295-3.817.774-1.087.214-.806.02-.535.198-.468.567-.702.473-.869-.13-1.092-.593-1.211-1.95-1.83-.499-1.13-.27-.925-.406-.51-9.651-.457-.822-.593.354-.941.239-1.009V25.2l.811-.832 2.61-1.612-.103-.01-.276-.178-.27-.234-.292-.176-.322-.006-.322.084-1.05.02-1.098-.317-.359-.047-.364.058-.338.104z"/>
            <path d="M614.936 23.593l-.323-.135-.13-.172-.192-.41-.151-.152-.182-.041-.348.078-.078-.005-2.61 1.612-.812.832v1.185l-.24 1.009-.353.941.822.593 9.651.458.406.51.27.925.5 1.128 1.95 1.83.592 1.212.13 1.092-.473.869-.567.702-.198.468-.02.535-.214.806-.774 1.087-1.295 3.817-.874 1.087.104.94 1.05.734.599.655.384.76.578-.089.312-.816.28-.125.182.691.432.66.712.35.078.623-1.274 1.373-.14.749.28.426.77.458.177.842-.717 2.096-.806.759-1.633.406-5.96-.916-14.247-7.924-3.438-.167-5.179 4.212-1.243 1.659-.171 1.222.166.952-.067.728.42-.12.687.026.874.525.53 2.106-.582 2.501-.869 1.664-.317 2.907.406 5.003.697 3.218.587 1.488 5.101 4.18 1.41 1.623-.328 1.851-3.744 6.448-.915 2.127-.655.515-4.545 1.716-2.444 1.456-2.777 2.542-3.458 4.285 8.793-2.298 8.554-4.067 5.419-1.393 2.392.629 6.276 4.826.738 1.653-.29 1.68-2.086 2.049-8.528 6.047-1.466 2.647-2.71 8.174-.176 4.39 1.341 7.466 1.009 1.597 4.274.51 5.497-1.28.92 1.175.853 1.649 1.607 10.878 1.404 3.203 1.825 1.05.515.406 1.393.624 1.83 1.144 1.738 2.736.566.4.541-.645.92-1.58.713-3.037 2.985-4.535 6.765-4.493.957-.982 1.071-1.722.13-.738.645-1.186-3.266-2.386-.182-.744-.223-.608-.505-.364-.603-.593-.099-1.097.323-1.472.55-1.331.084-1.025-.229-1.144.453-1.913.202-1.716-.842-1.357-.12-.682.318-.743 1.154-.442 3.427.431 2.205.676.587-.426.614-.681 6.39-.952 1.997-1.149 2.242-.837 1.16.993 2.11 3.453 2.819 1.003 13.39-.041 1.68-.281h.01l-.037-.348.125-1.165.609-1.222.676-.884.754-.785 1.024-.546.333-.37-.146-.556 1.519-.088 2.189-.136 1.601-.093-.244-.489-1.596-2.08-.338-.681-.214-.302-.26-.234-.525-.244-.192-.182-.182-.624-.14-.177-.183-.104-.228-.036.312-.546.535-.281 1.18-.156.536-.151.421-.291.978-1.118.11-.208.14-.172.286-.166.301-.052.281.026.25-.063.228-.296.084-.64-.068-.676.026-.618.385-.453.681-.535.421-.754.12-.432.66-.224.172-.863.093-.925-.015-.23-.094-.488-.02-.27.067-.328.302-.494.067-.25.073-.514.312-.983.13-1.087.156-.38.52-.733-.229-.239-.031-.213.057-.234.042-.302-.057-.109-.765-1.04-.114-.26.13-.12.218-.114.005-.25-.104-.254-.12-.115-.015-.255.016-.561.13-.562.307-.26.457-.01.515-.089.416-.234.172-.468-.104-1.357.104-.54.124-.292.448-.613.12-.27.186-.828.24-.51.504-.613.286-.499.135-.551-.057-.536-.224-1.081-.16-.245-.52-.816-.292-.598-.057-.707.083-.162.296-.286.063-.187-.016-.468.016-.15.14-.63-.005-.26-.135-.197.135-.593-.01-.432-.078-.4-.1-.947-.134-.473-.193-.447-.223-.364-.344-.426-.374-.349-.437-.234-.525-.083-.296-.13.25-.317.436-.359.26-.28.016-.25-.078-.536.062-.322.14-.125.198-.083.187-.13.078-.292.01-.239.037-.265.068-.234.109-.187.223-.297.042-.16-.031-.141-.057-.801-.323-1.659-.312-.52-.073-.26-.01-.619-.036-.275-.089-.281-.088-.161-.135-.161-.167-.136-.208-.088.057-.187.032-.073.072-.11-.306-.764.12-1.31.462-2.153-.125-.4-.036-.323.093-.286.13-.202.12-.255.083-.302.031-.327-.036-.338-.078-.25-.182-.41-.172-.91-.873-.12-1.071-.193-2.205.042-2.553.047-4.592.083-3.01.052-3.417.062-.713-.395-.442-.78-.629-1.648-.452-.734-2.278-2.787-.993-1.523-.811-1.722-.635-.858-.81-.353-1.769-.312-.79-.468-1.41-1.196-3.099-1.014-.228-.016-.203.11-.25.4-.15.161-.209.042-.286-.23-.15-.446-.104-.51-.151-.421-.359-.39-.322-.052-.682.27-.176-.01-.182-.094-.172-.14-.14-.146-.354-.093-.062-.193.062-.223.026-.182.031-.073.078-.089.026-.135-.125-.182-.405-.452-1.347-1.123-.255-.37-.421-1.866-.052-.567.073-.302.135-.265.088-.244-.062-.224-.13-.296.068-.604-.1-.358-.415-.578-.432-.41-.494-.13-1.211.55-.458-.04-2.87-2.076-.702-.728-.24-.135-.624-.093-.29-.094-.302-.218-.848-.396-1.67-.384-1.289-.723-.12.192-.051.4-.286.36-.23.077-.218.021-.462-.088h-.245l-.15.125-.136.16-.187.115-.484.052-.488-.073-.931-.384-1.082-.962-.348-.182-.421.03-.333.245-.26.385-.198.452-.291.453-.37.177-1.95.192-.3-.078-.568-.406-.27-.13-1.68-.254-.364-.136-.369-.306-.104-.312v-.375l-.057-.499-.073-.203-.343-.634-.016-.213.047-.193-.005-.187-.161-.187-.364-.177-.349-.078-.722-.068-1.42-.332-3.375-1.623-.743-.203-.349.026-.364.084z"/>
            <path d="M657.71 124.644l-2.818-1.003-2.11-3.453-1.16-.993-2.242.837-1.996 1.15-6.391.95-.614.682-.587.426-2.205-.676-3.427-.431-1.154.442-.318.743.12.682.842 1.357-.202 1.716-.453 1.913.229 1.144-.083 1.025-.551 1.331-.323 1.472.099 1.097.603.593.505.364.223.608.182.744 3.266 2.386-.645 1.186-.13.738-1.071 1.722-.957.982-6.765 4.493-2.985 4.535-.712 3.036-.92 1.581-.542.645.104 1.966-.176.785-.583.946-.364.915.156.567.328.588.629.717.036.775.656 1.425.863 1.43-.047 1.399-.489 1.42-.197 1.247-.354 1.186-2.865 3.848-.79 2.215-2.21 3.437-1.129 2.902-.302.494 24.487 11.081 3.089 2.304 8.59 12.527.676-.328 16.146-4.586 1.17.213.76.8.494.396 1.991.546 2.652 1.955 3.385 4.836 1.763 1.518 2.928-.104.728-.29.338-.516.036-.78-1.092-4.851-.088-1.909.447-6.552 1.02-3.681 1.377-3.323.297-3.032-.39-1.466-.032-.005-3.608-.53-2.169-.318-.717-.301-.255-2.366-.323-1.222-.052-.593.276-1.867-.302-2.345-.046-1.227.16-1.566-.036-.55-.083-.271-.109-.25-.042-.26.182-.556-.124-.146-.182-.104-.073-.156.166-.39.562-.728.13-.421.291-2.023.042-2.075-.728-2.724-.952-3.531-.874-2.959-.79-2.688-.749-2.559-.728-2.48-.619-2.101-.312-1.643-.03-2.028.13-.359 1.04-1.414 1.17-1.581 1.05-1.425.816-1.118.619-.551.707-.442.224-.291.12-.515-.037-.447-.078-.427.062-.374.38-.255 1.019-.068.322-.114.167-.286.02-.042-.192-.369-.364-.327-.333-.193-.722-.187-.832-.057-1.581.083-1.685-.13-1.737-.723-1.357-1.305-.536-1.888.172-.847.666-1.503.046-1.014-.613-3.968-.234-2.246h-.01l-1.68.28zM408.901 82.098l-.187-.567-.426-.728-.396-.364-5.922-3.614-.297-.702.354-.962.847-.889.474-1.95.005-2.71-.406-1.502-.374-.047-.089-.036-.026-.198.068-.177.088-.171.032-.182-.136-.645.042-.24.224-.207-.203-.297-.24-.52-.207-.598-.084-.514-.15-.286-.676-.754-.073-.12-10.842-2.163-.624-.63-.525.167-.635.39-.093.525.156.447-.115.416-.374.734-.91 1.055-1.623.718-2.438-.213-2.236-.62-.822-.571-.37-.406-.43-.364-.302-.405-.162-.323-.25-.213-11.132 1.035-5.414-.775-1.882.749-.478.613-.032 1.29-1.034 1.576-3.5 1.128-.645.712-.255.427-.468.483-.301 1.3-1.191 1.363-.354.868-.842.843-.733.442-.01.015.831.307.796.738.276.172.582.114.645.588.998 1.42.546 1.367.265.349.39.109.812-.245.239.052.348.24.442-.032.416-.208.525-.447.219.01.218.068.224.026.691-.239 1.373.062.432-.14.416-.24.343-.134.359.01.66.255.156.026.104.093.11.541.093.182.13.146.177.145.431.188.463-.016.915-.203.406-.15.37-.255.384-.193.463.047.359.255.16.359-.046.416-.25.431-.338.307-.655.421-.296.432-.333.322-.452.052-.843-.047-1.081.578-.442.098-1.503-.046-.442.156-.276.306-.171.416-.073.468-.005.437.213 1.014-.063.37-.655-.203h-.104l-.099.026.188.535.239.505.083.109.031.109-.026.11-.088.103-.167.135-.114.172-.052.213.005.245.281.764 1.378 2.21 1.19 1.066.516.598.15.775-.041.109.593.198 4.087 3.229 5.174 7.082.92.64.494-.037.089.557-.172.77.031 1.029.713.785 1.29-.14 1.939.229 1.456-.214.827-.436.098-.864.422-.566.702-.115.457-.525.005-.76.276-.571.905-.307 1.3-1.357 1.336-.135.843.062.436-.255.13-1.7.224-.51 3.078-.208.739-.676.073-.894-.39-.78.234-.505.624.052.847.728 2.465 1.124 3.307 3.738.926.136.665-.021.656-.359 1.32-.374.78-.427.245-.738.4-.104.692 1.705.468.255.712-.634.76-1.212.426-1.965-.593-2.434-1.227-1.222-.884-.551-1.05-1.29-2.325-5.19-1.498-2.225.333-.67 1.134-1.264.494-.052 1.014 2.121.665.177.708-.312.618-.603 1.534-.52v-.671l-.254-.567-.63-.821-.384-1.061.774-.219zM422.858 8.092L421.47 7.8l-.692-.005-.478.265-.427.427-.546.343-.582.25-.515.15-.993-.083.125.281.686.614.447.582.12.515.52.213.811.187.333.354-.193.499-4.862 5.788-.442 1.055-.187 1.446-.686 1.071-.052 1.492 1.981 5.486 3.572 5.632 1.186 1.227 1.373 1.082.723.925.02.77-.093 1.186.182 1.42.234.66 3.245 2.074 2.386 2.528.916 1.476 1.274 4.426 2.033.977.041.458.27.853 1.218 1.544 1.31 1.232 2.954.884 1.102-.041.655.109.468.328 1.987.395 1.066-.193 4.045-2.194.447-.156.474-.255 1.788-.395 2.923.286 1.118-.723 1.315-2.366.474-2.225.863-.864 1.123-.598.733-1.019.208-.686.01-.089h.006l-1.357-.92-.416-.12-.328-.197-1.06-1.295-1.556-1.175-.754-.718-.644-1.071-.505-1.461-.312-.484-.197-.39-.281-.977-.187-.38.083-.978-.681-.644-1.01-.396-2.797-.644-1.794-.702.167-.219.124.021.24.068.202-.037-.764-.4-.697.13-.733.301-.89.136-8.272-1.118-1.607-.546-3.474-1.81-1.57-1.134-1.451-1.508-1.092-1.638-.447-1.024-.224-1.071.031-.193.068-.244-.005-.28-.765-1.244-.16-.42-.094-.588.02-.62.172-.524-.894-3.188-.297-3.344-.41-1.014-.042-1.445-.151-.588.244-.8z"/>
            <path d="M374.477 103.959l-.92-.64-5.174-7.082-4.087-3.23-.593-.197-.115.265-.265.323-.192.332.057.416.302.208.832-.005.327.27-.083.692-.463.801-.291.744.442.52-.166.317-.234.125-.266.052-.55.182-.386-.1-.213.022-.577.348-.317.296-.343.089-.645-.276-.276.021-.223-.094-.453-.296-.317-.11-.15.063-.297.489-.021.125.057.322-.041.125-.13.068-.302.03-.14.048-.23.223-.103.307-.005.348.062.354v.005l.198.681-.058.494-.182.479-.166.645-.322.436-.583-.202-.255-.136-.384-.208-.5.026-.14.505.042.665-.11.64-.598.416-.613.062-.27.115-.214.296-.067.317.052.53-.068.302-.598.687-.166.421.322.364.177.104.192.15.161.188.073.218.068.276.104.161.109.125.094.182.067.494.01.494.068.442.24.343.062.167-.005.28-.058.281-.088.167-.125.026-.478-.167-1.477-.12-.666-.16-.738-.39-.837-.245-.089.718.177 1.055-.031.775-.099.208-.125.187-.14.161-.156.146-1.128.255-.208.343.665 2.142.276.567.395.297.432-.349h.478l.447.281.328.515.12.587-.042.645-.291 1.253-.104.234-.302.494-.047.24.104.296.161.224.12.223v.291l-.218.292-.869.717-.317.338-.525.463-.24.577-.181.66-.328.723h-.005l-.177.188-.208.145-.463.208.447.624.484.276.562.036.634-.099.057.01.047.022.036.036 1.92 3.49.285.322.333.28.28.312.157.432.093.52.146.458.218.42.292.422.327.328 1.014.728.078.202.489-.41.452-3.75.822-2.584.234-1.664-.302-.993.4-.463 1.264.036 3.339-.42 3.224 1.325 1.737.125 1.736.395 1.446.89 1.58 1.377 5.404 1.748 2.511.202 3.666-.936 3.37.156.452-.884.297-1.68-.318-.65-.592-.888v-.79l3.458-.802.728.063.358.109.375-.265.307-.505-.084-.197-.02-.281.062-.484-.042-.301-.109-.208-.145-.156-.13-.172-.052-.255.13-.369 1.237-.613 1.54-.078 1.045-.541.124-1.456-.197-1.41.062-.582.416-.275.624-.167 1.482.203.37-.738.795-1.202 2.132-.156 2.418.52.655-.546-.057-1.211.24-1.727-.22-1.066-.41-.624-.494.11-.993.436-1.836 1.92-.551-.838-.317-1.082-.583-.306-.707-.14-1.58-.87-1.093-.883-.208-1.04.307-.411.687-.27 2.152-.25 1.014-1.492.853-1.92.707-.82.115-.734-.01-.395-.666.02-.926-.135-3.307-3.738-2.465-1.124-.847-.728-.624-.052-.234.505.39.78-.073.894-.739.676-3.078.208-.224.51-.13 1.7-.436.255-.843-.062-1.336.135-1.3 1.357-.905.307-.276.572-.005.759-.457.525-.702.115-.422.566-.098.864-.827.436-1.456.214-1.94-.23-1.29.141-.712-.785-.031-1.03.172-.77-.089-.556zM379.08-5.09l.946-.177.863-.505 1.336-.176 1.867-1.29.447-.608.14-.505.084-.546-.395-1.695-.323-.562-.66-.322-.297-.338-.026-.286-.078-.052-.166-.551-1.29.733-.26.047-.322-.089-.603-.27-.338.01-.354.167-.005.005-.328.27-.29.344-.557.962-.12.166-.171.14-.36.198-.166.135-.26.411-.358.842-.354.338-1.248.64-.395.333-.286.369-.609 1.258-.244.4-.296.328-.333.276-.349.218-.468.193-.384.02-.39-.109-2.242-1.003-.29-.063-.235.032-.52.166-.832.036-.286.063-.416.203-1.118.816-.38.182-1.43.187-.213.031-1.248-.317-1.424-.645-4.535-.956-.494-.198-1.102-.432-1.919-.02-1.227-.302-.593-.02-.166-.037-.1-.021-.441-.26-.343-.094-.136.14-2.37 2.538-.48 1.155-.623 2.927.296 1.576.551 1.456-.01 1.368-.806 1.456-3.692 3.832-1.212 2.054-.234 1.19.286.916 1.363 1.851h.145v.38l.125.203.177.145.14.224.13.489.037.296-.089.135-.067.14-.01.91.753 7.359.432.582.099.218.026.11.171 1.638-.093.145-.203.115-.198.166-.093.307.161.426.296.546.14.494 1.446 1.737.53 1.238-.244 3.37.297 1.46.811 1.222 6.282 4.13 2.802.498 2.299.037 2.98 2.72.363.722 2.678 1.513.926.864.998.42.635-.436.353-.562.068-.239.317-.754.707-.884 1.29-.842 1.066-.224.52.057.593-.561.905-.598.993.161.686.692.853.535 1.097.245.676.582.099.572-.286.4.858 2.491-.02 1.789.774 1.134 2.096.286 5.111-.593-.13-.874-.005-1.3.41-.847 3.261-3.318.905-1.508.645-.468 1.42-.681 1.175-1.274.743-.447.76-.323 6.77-.785 2.038.317 1.399-.234 5.148.536 1.607-.635.749-.598.25-.145-.297-.11-.297-.16-.197.03-.302-.618-.307-.167-.738.037-.322.114-.193.24h-.161l.11-.406.051-.151-.977-.8-.458-.469-1.32-.873-.557-1.326-.177-1.966-.567-.5-1.58-.826-.484-.094-.135.078-2.101-1.3-.645-2.974.192-2.475.484-1.04.224-.749-.23-.494-1.434-1.331-1.7-2.32-1.088-2.698-.135-2.174-.64-2.007-1.502-.749-4.836.707-.63-.114-.296-.218-.681-.666-1.373.166-1.035.411-.254-.847.098-1.41.442-1.003.546-.713.682-1.274 1.72-1.263.9-.978 1.467-.431 1.544.244 1.05-.712-.41-1.352-1.129-.64-.015-.77.795-1.07.224-1.847-1.243-3.115-.052-2.08-.338-.488.302-3.146-.853-.318-1.388 1.243-1.451.874-.874-.078-1.622 1.097-2.465 4.306.291.447.323.125-.266.348-1.346 1.02-.817 1.112-.9.728-3.218-.915-1.415.4-1.476.796-1.467.535-1.102-.608-.614-1.508.349-1.721.863-1.139.577-.338.218-.395.801-.089 1.144.276.297-.26.145-.764.01-.812.058-.42.447-.027z"/>
            <path d="M330.672-29l-.53.156-2.288 1.888-.094.317.11.915-.042.333-.016.104-.124.364-.713 1.435-.099.374-.041.463.041.39.073.359-.015.333-.214.333-.109.624.078.525-.01.504-.364.551-.411.307-1.118.51-.473.114-.546-.047-1.487-.743-.515-.057-1.165.312-.5.052-.478-.058-.332.01-.323.115-.442.276-.239.338.13.338.567.665.005.016.094.26.124.593.255.551-.005.203-.052.187.01.25.073.234.26.55.016.245-.151.505.026.239.556.431.957.505.832.587.177.687-.426.837-.11.442.198 1.092-.208.328-.348.29-.302.516v.005l.114.192.068.187.088.427.13.203.198.15.161.172.016.25-.01.228.072.214.094.208.208.618.291.422.348.338 1.144.546.104.81-.587 1.998-.083.556.036.343.11.333.108.494-.098.203-.188.187-.062.172.265.14.39.125.167.109.156.177.156.457-.006.572-.098 1.087.197 1.399-.026.473-.275 1.108v.322l.067.697-.015.255-.068.447.062.24.198.14.317.15 1.071.198.713-.416.27-.057.338.13.307.26.26.369.166.432.01.436-.483.702-.78.609-.603.691.094 1.31-.078.536-.13.536-.14.4-.162.214-.385.16-.177.157-.03.239.176.515-.12.171-.416.203-.28.224-.198.348-.182.572-.187.421-.52.588-.198.395h-.005v.005l-.182.349-.13.333-.036.348.104.385.02.343-.192.291-.218.281-.032.099-.062.208.374.593.754.124 1.394-.166.255.078.775.38.234.16.124.25.078.318.125.338.24.306.166.058.145-.058.14-.026.167.125.016.135-.089.437-.015.161.161.312.302.032.343-.125.275-.156.588-.068.598.276.536.468.795.972.047.255-.218.354-.75.603-.176.239-.094.822.432.494.484.364.088.468-.198.546-.14.67-.042.671.115.551v.006l.088.457-.286.811.13.442.291.167.801.073.333.254.302.775.202.224.78-.12.198.25.125.38.182.369 1.237.795.49.572-.068.874-.255.333-.297.171-.265.229-.15.484.067.546.203.457.135.458-.135.52-.291.78.005.265.166.478.13.177.151.073.161.047.156.114.083.177.11.41.098.136.203.042.421-.13.208-.01.151.082.245.27.468.245.145.245-.036.29-.234.302-.12.718.12.473.197.442.104.603-.114.645-.302.484-.759.941-.234.66.172.468.426.292.562.124.665-.036.312.052.27.24.198.233.224.161.25.078.28.01.36.198.316.432.526.967.228.577-.036.5-.416.972-.229.915-.02.567-.068.052-.265.104-.094.062-.047.427.312.405.078.068.343.291.276.302.02.38.136.218.187.177.172.26.104.348.036.26.078.244.245.286.587.27.624-.046 1.207-.484.546.042.374.478.234.671.104.619.057 1.15.146.467.405.515-.52.338.12.322.4.312.318.312.098.515-.052 1.227.11.562.665.868.27.541-.088.536-.265.421-.26.546-.13.551.14.427v.005h.006v.005l.38.39.462.062.478-.16.427-.292v-.005h.005l.005-.005.385-.104.712-.36.562-.01.478.177.01-.015.734-.442.842-.843.354-.868 1.19-1.363.302-1.3.468-.483.255-.427.645-.712 3.5-1.128 1.034-1.576.032-1.29.478-.613 1.882-.749 5.414.775 11.133-1.035.25.213.16.323.302.405.432.364.369.406.822.572 2.236.619 2.438.213 1.623-.718.91-1.055.374-.734.115-.416-.156-.447.093-.525.635-.39.525-.166-2.98-6.677-5.111.593-2.096-.286-.775-1.134.021-1.789-.858-2.49.286-.401-.099-.572-.676-.582-1.097-.245-.853-.535-.686-.692-.993-.161-.905.598-.593.561-.52-.057-1.066.224-1.29.842-.707.884-.317.754-.068.24-.353.561-.635.437-.998-.421-.926-.864-2.678-1.513-.364-.723-2.98-2.72-2.298-.036-2.802-.499-6.282-4.129-.811-1.222-.297-1.46.245-3.37-.53-1.238-1.446-1.737-.14-.494-.297-.546-.161-.426.093-.307.198-.166.203-.115.093-.145-.171-1.638-.026-.11-.099-.218-.432-.582-.754-7.358.01-.91.068-.14.089-.136-.037-.296-.13-.49-.14-.223-.177-.145-.125-.203v-.38h-.145l-1.363-1.851-.286-.915.234-1.191 1.212-2.054 3.692-3.832.806-1.456.01-1.368-.55-1.456-.297-1.576.624-2.927.478-1.155 2.371-2.537.136-.14-.255-.068-.489-.24-.458-.306-.25-.297-.036-.296.063-.24.088-.228.047-.286-.104-.187-.515-.229-.203-.156-.109-.229-.166-.598-.089-.218-.202-.219-.203-.12-.187-.14-.14-.28.186-.411-.124-.297-.286-.182-.302-.057-.213-.104.005-.234.057-.265-.062-.172-.198-.026-.197.078-.151.104-.052.052-2.247-.743-.561.171-.14-.42-.224-1.384-.151-.296-.182-.27-.13-.292-.395-.884-.172-.265-.197-.115-.219-.26-.177-.29-.067-.198-.12-.146-.01-.005-.765-.525-.078-.1-.046-.124-.078-.11-.167-.046-.234.005-.109-.02-.551-.401-.078-.198.177-.338-.448-.4-.265-.562-.645-2.683-.26-.603-.452-.322.083-.084.063-.124-.494-.016-.463-.088-.083-.052-.307-.177-.057-.083-1.748-1.27-.42-.358-1.285-.598-.297-.338-.577-.884zM438.682 58.084l-2.954-.884-1.31-1.232-1.217-1.544-.27-.853-.042-.458-2.033-.977-1.753.603-2.345 1.56-.874 2.033.448 1.7 1.154 1.44.692 1.743.717 1.087 1.066.535.655.042.416.229.406.442.562.317.4.728.348 1.32.682 1.119.494 1.102.338 2.829-.494.728-3.926 1.06-2.169 1.233-1.32 1.498-.115 1.05.031.296-1.965-.91-1.41-.098-1.95.546-1.2.884-.78.16-.921.032-.676.15-.447.302.062.827 2.73 2.46 1.602 2.36 1.003-.441 2.356.041 1.794 1.03.816 1.03-.655.998 1.472 1.123 2.75.473.604-.166 3.057.78.53.369 3.776-.104.645-1.487.904-.671 3.786-1.154 1.118-.557 1.18-.343.994-.057 3.858-1.685 1.284-.073.64.094-.463-.77-.546-1.222-.177-.816.266-1.035 1.185-1.144 4.358-2.132.738-.707.255-.978 1.03-2.147.68-2.304-.992-.858-1.53-.458-.795-.68-1.097-1.514.624-.941 2.439-.203 5.117.546-.021-.53-.25-.728-3.484-2.663-1.19-.645-5.736-4.846-2.923-.286-1.788.395-.474.255-.447.156-4.045 2.194-1.066.193-1.987-.395-.468-.328-.655-.11z"/>
            <path d="M423.035 41.632l-1.451-.775-.754.234-.848.582-.774-.104-.614-.343-.416.161-.26.463v.458l-.291.483-.666.14-1.607-1.715-.884-.328-.629.177-.25.145-.748.598-1.607.635-5.148-.536-1.399.234-2.038-.317-6.77.785-.76.323-.743.447-1.176 1.274-1.42.681-.644.468-.905 1.508-3.26 3.318-.411.847.005 1.3.13.874 2.98 6.677.624.629 10.842 2.163.073.12.676.754.15.286.084.514.208.598.239.52.203.297-.224.208-.042.239.136.645-.032.182-.088.171-.068.177.026.198.089.036.374.047.406 1.503-.005 2.709-.474 1.95-.847.89-.354.961.297.702 5.922 3.614.396.364.426.728.187.567.728 1.326.967.603 4.618.156 1.888 1.03 1.81.447 1.627-.572.79-1.076-.015-.468-1.602-2.361-2.73-2.46-.062-.827.447-.301.676-.151.92-.031.78-.161 1.201-.884 1.95-.546 1.41.098 1.965.91-.031-.296.114-1.05 1.321-1.498 2.169-1.232 3.926-1.061.494-.728-.338-2.829-.494-1.102-.682-1.118-.348-1.321-.4-.728-.562-.317-.406-.442-.416-.23-.655-.04-1.066-.536-.717-1.087-.692-1.742-1.154-1.44-.448-1.701.874-2.033 2.345-1.56 1.753-.603-1.274-4.426-.916-1.476-2.386-2.528z"/>
            <path d="M408.901 82.098l-3.167-1.732-.774.219.384 1.06.63.822.254.567v.67l-1.534.52-.618.604-.708.312-.665-.177-1.014-2.121-.494.052-1.134 1.263-.333.671 1.498 2.226 2.324 5.19 1.05 1.289.885.551 1.227 1.222.593 2.434-.427 1.965-.759 1.212-.712.634-.468-.255-.692-1.705-.4.104-.245.738-.78.427-1.32.374-.656.359.01.395-.114.733-.707.822-.853 1.919-1.014 1.492-2.152.25-.687.27-.307.41.208 1.04 1.092.885 1.581.868.707.14.583.307.317 1.082.551.837 1.836-1.919.993-.436.494-.11.41.624.22 1.066-.24 1.727.057 1.211-.655.546-2.418-.52-2.132.156-.796 1.202-.369.738.536.24.925.597.442.645 9.24 6.084 4.78.577.795.302.64-.172 1.128-1.165.562-.156 1.144.068 1.414-.156 5.871 2.512 2.241-2.018.38-.525.067-.609-.395-1.68-.125-1.419-.338-1.425-1.528-3.01-.172-2.746-.364-1.648-1.087-.432-.312-.733.749-.302 2.22.229.994.478.483-.109-.369-2.023.078-1.835.572-.936.255-.926-.24-1.529.536-.816 3.921-.208 1.856.322.52.754-.457.978.327 1.19.848 1.01.697.64.941.093.525-1.061-.463-2.824-.54-1.305-1.035-1.227-1.103-.53-2.308-.635-.968-.494-.494-.483-.057-.375.385-.442.65-.067 1.243-.385 1.04-1.222-.27-1.207-.963-1.601-.405-1.768.676-.858.582-.047.047.494-.02.666.42.608.734.135.728-.806.078-1.014-.51-.67-.182-.942.016-.629-.53-.37-3.058-.78-.604.167-2.75-.473-1.472-1.123.655-.999-.816-1.03-1.794-1.029-2.356-.041-1.003.442.015.468-.79 1.076-1.628.572-1.81-.447-1.887-1.03-4.618-.156-.967-.603zM487.588 103.58l-12.262-7.317-5.169-1.565-6.183-.068-.005-.068-.608.858-.718 2.054-.374 4.036-.26 1.008-.395.234-2.231.754-2.668.422-1.279.847-1.872.536-1.94-.26-1.227.993-.031 1.71.447.63-.229.525-2.007 1.134-.203 1.347 1.165 1.362.952.858.78.359.858-.078.64.39.629.743.327.77-.088 1.071.52 1.29.998 1.237 1.42 1.186 5.553.52 2.216 1.222 4.97 1.352-.613-.328-.447-1.123.645-5.111.255-.76.806-.81 2.048-.895 4.65-.536 1.663.083 7.26-1.882.712-1.03.946-2.225.583-2.293.057-2.138z"/>
            <path d="M462.071 85.795l-.156-.879.01-1.466-.831-.988-1.212-.016-.276.718.832 1.154v.442l-.218.396-.546-.318-1.238-1.118-2.11-.624-2.17-.135-.93-.218-.64-.094-1.284.073-3.858 1.685-.994.057-1.18.343-1.118.557-3.786 1.154-.904.67-.645 1.488-3.775.104-.016.63.182.94.51.671-.078 1.014-.728.806-.734-.135-.42-.608.02-.666-.047-.494-.582.047-.676.858.405 1.768.962 1.601.27 1.207-1.04 1.222-1.242.385-.65.067-.385.442.057.375.494.483.968.494 2.308.635 1.103.53 1.035 1.227.54 1.305.463 2.824-.525 1.06-.941-.093-.697-.64-.848-1.008-.327-1.191.457-.978-.52-.754-1.856-.322-3.92.208-.536.816.239 1.53-.255.925-.572.936-.078 1.835.37 2.023-.484.11-.994-.479-2.22-.229-.749.302.312.733 1.087.432.364 1.648.172 2.746 1.528 3.01.338 1.425.125 1.42.395 1.68-.067.608-.38.525-2.241 2.018-.338.55-.156.843.27.702.073.593-.858 1.992-.182.572-.109.624.28.54 1.093.64 1.425.52 2.428.213.593.219 1.721-1.092.406-.427.733-2.262.957-.546 1.185-.405 1.082-.62 1.18.38.947 1.144.587 1.004.021.692-.343.738-.234.77.208.603.702.603 1.617.816.738.78.666.526.504-.338.14-.671.422-.837.754-.541.484.291.338.614.696.54.463.479-.031.759.15.733 1.379.744.187.208 1.784-1.482 3.416-2.033 8.97-2.366 1.347-.832 1.206-1.025 1.357-.431 1.233-.006.572-1.019 2.054-4.981.26-1.55-4.971-1.352-2.216-1.222-5.553-.52-1.42-1.186-.998-1.237-.52-1.29.088-1.071-.327-.77-.63-.743-.64-.39-.857.078-.78-.359-.952-.858-1.165-1.362.203-1.347 2.007-1.134.23-.525-.448-.63.031-1.71 1.227-.993 1.94.26 1.872-.536 1.28-.847 2.667-.422 2.23-.754.396-.234.26-1.008.374-4.036.718-2.054.608-.858 1.862-6.032-.01-1.846-.552-1.076-.998-1.248-.988.094-.598 1.222zM403.134-27.2l-.01-.006-.25.374-.223.208-.265.068-1.638-.031-.51.14-.416.291-.333.344-.925.946-2.59 1.461-.385.219-1.139 1.16-.28.192-.484.052-1.503.52-.9.494-.707.592-1.066 1.384-.005.005-.712.728-.645.369-.25.14-2.142.843-1.03.629-.213.24-.073.275-.774 1.253-.364 1.05-.11.208-.228.266-.146.083.166.551.078.052.026.286.297.338.66.322.323.562.395 1.695-.083.546-.14.505-.448.608-1.867 1.29-1.336.176-.863.505-.947.177-.993-.817-.447.026-.057.421-.01.812-.146.764-.297.26-1.144-.276-.8.089-.219.395-.577.338-.863 1.139-.349 1.721.614 1.508 1.102.608 1.467-.535 1.476-.796 1.415-.4 3.219.915.9-.728.816-1.113 1.346-1.019.266-.348-.323-.125-.291-.447 2.465-4.306 1.622-1.097.874.078 1.45-.874 1.389-1.243.853.318-.302 3.146.338.488.052 2.08 1.243 3.115-.224 1.846-.795 1.071.015.77 1.129.64.41 1.352-1.05.712-1.544-.244-1.467.431-.9.978-1.72 1.263-.682 1.274-.546.713-.442 1.003-.098 1.41.254.847 1.035-.41 1.373-.167.681.666.297.218.629.114 4.836-.707 1.503.749.64 2.007.134 2.174 1.087 2.699 1.7 2.319 1.436 1.331.229.494-.224.749-.484 1.04-.192 2.475.645 2.974 2.1 1.3.136-.078.483.094 1.581.827.567.499.177 1.966.556 1.326 1.321.873.458.468.977.801-.052.15-.109.406h.161l.193-.239.322-.114.738-.037.307.167.302.619.197-.032.297.162.296.109.63-.177.883.328 1.607 1.716.666-.14.291-.484v-.458l.26-.463.416-.161.614.343.774.104.848-.582.754-.234 1.45.775-.233-.66-.182-1.42.093-1.186-.02-.77-.723-.925-1.373-1.082-1.186-1.227-3.572-5.632-1.981-5.486.052-1.492.686-1.071.187-1.446.442-1.055 4.862-5.788.193-.5-.333-.353-.811-.187-.52-.213-.12-.515-.447-.582-.686-.614-.125-.28-.11-.011-.691-.671-.588-.983-.275-.359-.536-.676-.322-.452-.359-.4-.354-.552-.348-.317-.276-.374-.15-.728-.25-.598h-.504l-1.092.51-.66-.016-.39-.37-.339-.499-1.04-.837-.041-.468.088-.535-.099-.406-.057-.229-.27-.229-2.85-1.409-1.399-1.123-.426-.785-.052-1.139.197-.317 1.129-.697.062-.182-.005-.208.073-.177 3.973-.707.889-.551v-.005h.005l.192-.292.167-.358.005-.01.099-.375.015-.39-.114-.349-.65-1.393-.328-.317-1.227-.515-1.227-1.191-.525-.744-.286-.748.036-.952.4-.79.62-.598.727-.375 1.347-.27 1.134-.77.556-.177.229-.072-.478-1.01-.609-.831-1.471-1.368-3.62-4.357-1.315-1.233-.416-.291z"/>
            <path fill-rule="nonzero" d="M555.848 328.718l-.094-.275-.026-.229-.109-.172-.369.1-.312.17.078.235.073.145-.01.146.098-.078.203.198.125-.073.177-.016.166-.15zm-10.78-.842l-.036-.426-.11-.214-.509.156-.28.151.083.265.343.162.291.067.218-.161zm-.582-8.434l.452-.926-.078-.166-.104-.13-.12-.094-.15-.068-.213-.239-.203-.041-.182.093-.135.187-.089.276.01.224.053.239.026.317.114.14.255.13.25.078.114-.02zm-10.29-5.814l.046-.14.047-.146-.021-.15-.02-.136-.058-.047-.088-.083-.151-.083-.005-.005-.021-.167v-.026l.005-.218v-.005l-.016-.047-.041-.104v-.005l-.307-.12-.8-.078-.36-.13-.42-.02-.386.119-.317.239-.213.338.437.712.697.333.16.01 1.592.089.24-.13zm39.628-3.125l.307-.515-.041-.567-.167-.255-.208.042-.348.27-.276.536-.052.556.349.193.436-.26zm-47.996-1.082l-.171-.364-.255-.12-.224-.051-.426.01-.172.265.214.297.374.192.38.052.28-.28zm-5.964-3.24l-.177-.16-.286-.255-.499-.198-1.612-.12-1.815-.561-.208.015-.171.063-.156.036-.084.104.193.224.676.567.286.182.047.03.38.162 1.226.213h.411l.39-.223.26-.063.827.073.312-.088zm64.496-.857l.644-.567-.109-.744-.806.078-.546.255-.312.442-.099.64.406.166.822-.27zm-4.472-1.644l.478-.426 1.326-.343.348-.198.344-.197-.172-.453-.125-.093-.343-.266-.551-.239-.421-.104-.848.016-2.84.645-2.272 1.466-.816.192-3.006-1.138-.546.317.146.192.359.281.369.354.172.41.098 1.077-.078.457-.327.375.093.166.063.161-.208.073-.224.187-.156.068-.213.02-.447-.036-.224.016-1.404.551-.431.349-.994.608-.005.005-.078.031-.27.104-.416.047-2.876.941-1.139.64-.062-.02-.135-.037-.234.109-1.02-.359-.233.25.223.743.11.125-.037.276-.146.421.104.598.11.276.078.052.088.062.198-.031.265-.078.234-.13.099-.167.093-.202h.219l.244.078.114.026.063.01h.005l.198-.073.4-.255.941-.26 1.331-.15.375-.203.733-.536 1.201-.515 1.16-.832.457-.218.437-.094.983.14.458.006.4-.229.4-.343 1.436-.738.55.431.469.479.499.213.63-.37 1.06-1.024.182-.12.187-.218.817-.416.187-.197.14-.323.89-.91.244-.421.489-1.082zm6.682-3.364l.135-.068.15-.078.203-.228.084-.307-.073-.302-.01-.047-.203-.166-.25-.099-.229-.15-.38.077-.395.552-.052.608.682.265.338-.057zm-19.573-41.777l-.947-.66-.936-1.233-1.929-1.508-3.884-1.107-1.83-.135 1.242 3.744.005.691-.707.51.115 1.165 6.468 6.276.572 1.544-.254 2.746-1.087 3.978-.104 1.02.104.784 1.82 1.493 1.03 1.685-.13 1.378-.37.592-.494.354-.65.286-1.237-.073-1.976.51-2.938 1.586-.838 1.331-.707 2.158-1.243 1.18-2.688.827-5.736-.811-1.965.452-1.066.458-1.02-.359-1.31-.166-5.74.525-2.226.775-.952 1.165-.312 1.924-.457 1.326-.006.265.245.712-.583.947-2.24 1.19-6.584-1.17h-.556l-1.566.4-.374-.051-.364-.177-1.815-1.487-.795-.323-4.8-.426-1.58-1.503-.588-1.139-.931.541-.291.104-1.004-.041-1.06-.27-.354-.022-1.404.146-.234-.016-.442.188-.094-.006-.12.146-.348.676 1.144.51.77.525 1.731 1.56.988.296.442.265.187.53.198.24 1.28.322.27.333.228.385.286.317.463.135.473.042 7.317 2.496.691.432.364.447.172.478.052 1.15.125.473.307.38 2.09 1.58 1.617.957 1.123.977.266.089.504-.27.525.041.962.312.468-.016.879-.25.988-.134 1.414-.666.442-.094.23.01.176.09.41.332.235.073.369.057 1.477.432.452.052 1.643-.115.411-.12.432-.067.457.088.64.52.406.734.317.774.39.62.775.379 1.96-.078.962.187.63.598.264.697.37.546.94.15 1.852-.166.255.047.364.218.27.047.224-.057.161-.135.135-.156.146-.13 2.34-1.368 2.07-1.685.233-.15 1.41-1.264.317-.15.946-.276.421-.052.52-.125.214-.317.114-.432.255-.458.816-.39.988.136 1.737.598.967.057.9-.187.811-.411.702-.624.302-.489.254-.681.13-.723-.088-.593-.156.156-.13.073-.312.104 1.165-1.3.239-.187.27-.146.723-.676.406-.182.218.005.676.162h.806l.187-.052.318-.23.239-.046.723.02.228-.02.89-.218.956-.115.24-.078.39-.343.114-.073.005-.099.52-.442 1.446-.878.374-.318.187-.12.167-.036.114-.083.042-.255.073-.12.358-.353.177-.12.567-.114 1.399-.057.463-.224.494-.343.68-.177 1.332-.072.666.098 1.128.448.64.13 1.341.067.645.135.525.292.146-.182.489.156 2.23.026.208.104.156.234.203.234.323.104.582-.006.276-.093.25-.25.134.546.349.505.515.348.634.088v.182l-.187.151-.38.406-.104.088-.203.089-.005.176.146.125.275-.062-.01.25.052.197.13.083.421-.208.146.094.114.161.11.083.103.052.094.115.125.114.197.047.219-.042.665-.286-.135.198-.078.234.031.229.182.166-.265.12-.218.135-.234.093-.312-.02.218.234.66.442-.025.384.26.385.733.635.291.431 1.404 5.595.073 1.124-.37 3 .006.224.083.546.057.213.104.182.411.4.24.432.15.54.125 1.087.161.146-.114.64 1.424 1.575.292.765-.234.478-.671.733-.135.5.046.285.214.463.083.4.291.864.057.28.042.1.088.025.27-.046.094.02.484.578.031.093.218.193.177.457.27.967.52 1.212.125 1.17.151.374.317.172 2.881.192-.161.146 1.466.463.536.041.218-.026.432-.114.244-.02.25.046.447.229.265.047 1.191-.276.484-.047.54.016.448.12.338.296.218.546.037.187-.016.083-.057.12-.083.275-.089 1.05.338.006.473-.296.734-.598.873-.448.884-.228.817.192.67.811.645 1.368.473.645.578.27.712.11.681.218.702.135.79-.125.76-.525.125-.057.078.166.192.026.218-.073.172-.12.25-.239h.109l.073.094.145.062.328-.083.494-.416.291-.15.692-.141.629-.036-.151.38.4.192 1.155.078 1.341-.214 3.906.718h1.846l.244.078.12.187.072.24.136.228.197.094.754-.016.837.385.53.64.994 1.596.28.234.365.156.426.088.494.026.198-.057.197-.088.188-.047.156.099.16.156.183.036.452-.099 1.227-.582 1.202-.187-.094-.567.567-.244.01-.36.057-.384-.4-.198-.177-.239-.759-1.3-.359-.353-.296-.38-.14-.489-.354-.437-.65-.25-.473-.483-.115-.863-.697-1.139-4.076-3.614-.765-.483-.296-.125-.083-.437.104-.764.39-.593.254-.14-.878-1.327-.312-.26-.583.006-.837-.328-.63.156-.634.67-.92.115-1.071-.036-.884-.203-.364-.645-.063-.749-.218-.53-.052-.468.203-.437.031-.26-.4-.26-1.347-.208-.822-.374-.759-.177-.744.354-1.164.109-1.763-.317-2.855.202-.036-.488.436-.541.255-1.342v-.691l-.125-.697.5-4.69.301-.744.39-.484.12-.4-.026-.614-.52-1.544.02-.479.463.021 1.352.827.182-.463-.618-1.336-1.264-1.467-1.607-1.352-1.482-.889-1.42-.036-.878.598-.52.717-1.009.952-.65-.198-1.461-1.076-6.646-3.53-.437-1.405-.676-9.058-.655-1.903-.582-1.191-.577-.297-.49-.707.38-.749.593-.499-.14-1.222-.973-1.482-.982-1.071-.505-.967-.858-1.118-1.118-.609-.66-.088-.427-.359-.312-.515-.785-3.79.193-2.502-.172-.39-2.246-1.102-1.17-.047-.988.785-.66.806-2.325 2.216-2.533 1.253-1.378.244-2.563-.39-2.21-1.341-1.846-1.7-1.924-2.486-.447-2.392.53-1.81-.41-9.344-.61-.9-.639.083-2.532 1.186-4.306 3.27-1.102.287-.962-.479z"/>
            <path d="M390.836 125.44l-.358-.11-.728-.062-3.458.801v.79l.592.89.318.65-.297 1.68-.452.883-3.37-.156-3.666.936-2.511-.202-5.403-1.748-1.581-1.378-1.446-.889-1.736-.395-1.737-.125-3.224-1.326-3.339.421-1.263-.036-.4.463.301.993-.234 1.664-.822 2.584-.452 3.75-.489.41.073.188-.005.92.145.182.375-.094.353-.239.624-.603.396-.166 1.045-.016.463-.12-.084.796.38.39.458.312.15.572-.265.39-1.019.624-.338.442.37.317.639.151.65-.083.4-.38.104-.062.11-.021.109.02.026.016.083.047.067.037.063.052.723.904.25.448.17.488.068.52.01.432.11.374.723.697.858 1.217.681.556.302.307.192.432.005.265-.13.494-.015.213.093.24.25.155.015.234-.156.328-.296.364-.577.577-.458.343-.348.068-.359-.026-.473.042-.432.244-.02.312.296.26.946.11.406.17.312.276.12.354-.141.437-.322.333-.354.286-.265.317v.005l.457 1.024 1.259.151 2.537-.28 2.283.707 2.148 1.024.603.608 2.007 1.165.083.052.988.801 1.41.853.889 1.019 6.479 5.663h.005l.692.51.655.343.676.15.76-.083.379-.145.983-.546.306.02 1.217.422.463.244.27.317.245.395.359.463.577.437.12.187.03.297-.077.166-.12.14-.187.474-.089.098v.125l.14.343.1.146.644.614.1.14.082.14.38.53.135.146.213.104.115.323.416.322.114.328-.031.353-.114.25-.13.224-.084.275-.046.354.02.203.146.114.338.094.276.176.176.26.188.219.327.041.416.172.047.068.577-.23 2.247-1.476.77-1.258-.256-1.628-.036-1.295 1.576-2.179 1.976-4.617-.266-.25-.42-.619-3.464-7.306-2.532-3.338-.708-.78-.317-.161-.405-.12-.281-.312-.421-.811-.515-.603-.234-.11-.323-.015-.275-.088-.12-.323-.229-.27L388.71 146l-.916-.229-.55-.333-.39-.4v-.338l-.38-.177-1.066-.816-.1-.125-.124-.094-.166-.036-.14.026-.11.12-.12.03-.15-.057-.073-.12-.031-.124-.037-.068-.811-.26-.39-.176-.28-.25-.282-.343-.062-.219.25-.452.03-.26-.082-.218-.224-.094-1.175-.718-.453-.166-.561-.718-.676-.353-.484-.863-.338-.193-.026-.197.333-1.004.062-.385.37-.161.374-.042.473-1.175 1.337-1.269 7.534-2.126.427-.604 1.201-.806.51-.546.29-.582.11-.822-.192-1.274-.49-1.138z"/>
            <path d="M397.461 117.328l-1.482-.203-.624.167-.416.275-.062.583.197 1.409-.124 1.456-1.046.54-1.539.079-1.237.613-.13.37.052.254.13.172.145.156.11.208.041.301-.062.484.02.28.084.198-.307.505-.375.265.297.406.489 1.138.192 1.274-.11.822-.29.582-.51.546-1.201.806-.427.604-7.534 2.126-1.337 1.27-.473 1.174-.374.042-.37.161-.062.385-.333 1.004.026.197.338.193.484.863.676.353.561.718.453.166 1.175.718.224.094.083.218-.031.26-.25.452.062.219.281.343.281.25.39.176.811.26.037.068.03.125.074.12.15.057.12-.032.11-.12.14-.025.166.036.125.094.099.125 1.066.816.38.177v.338l.39.4.55.333.916.229 2.646 1.326.23.27.119.323.275.088.323.016.234.109.515.603.42.811.282.312.405.12.317.161.708.78 2.532 3.338 3.463 7.306.421.62.266.249 1.175-1.727 2.943-7.742 1.165-.89 5.309-.353 1.508-.468 2.288-.172 2.236.666 1.102 1.076 1.342.411 4.768.484 5.013 3.458 3.021.286 1.581-.333-.015-.25.135-.613.286-.52.494-.318 1.716-.572.983-.743.39-3.042 1.237-1.456 3.198-.905.515-.307.047-.478.12-.603 2.173-4.384-.052-1.108.088-1.404.484-1.03-.187-.207-1.378-.744-.151-.733.031-.76-.463-.478-.696-.54-.338-.614-.484-.291-.754.54-.421.838-.14.67-.505.339-.666-.526-.738-.78-1.617-.816-.702-.603-.208-.603.234-.77.343-.738-.02-.692-.588-1.004-.947-1.144-1.18-.38-1.082.62-1.185.405-.957.546-.733 2.262-.406.427-1.721 1.092-.593-.219-2.428-.213-1.425-.52-1.092-.64-.281-.54.11-.624.181-.572.858-1.992-.073-.593-.27-.702.156-.842.338-.551-5.87-2.512-1.415.156-1.144-.068-.562.156-1.128 1.165-.64.172-.795-.302-4.78-.577-9.24-6.084-.442-.645-.925-.598z"/>
            <path d="M433.736 157.462l-3.02-.286-5.014-3.458-4.768-.484-1.342-.41-1.102-1.077-2.236-.666-2.288.172-1.508.468-5.31.353-1.164.89-2.943 7.742-1.175 1.727-1.976 4.617-1.576 2.18.036 1.294.255 1.628-.77 1.258-2.246 1.477-.577.229.317.457.489 1.108.333.38.749.369.213.447v.005l.104.447.77 1.383.145.203.39.26.161.151.12.229.114.442.078.192.343.385.848.645.296.452.063.536-.13.572-3.281 8.944-.052 4.316-.078 6.079h7.072l.234.14.067.322-.073 12.06.032.764 2.277.327.24.083.223.14.359.39.275.49.198.546.177 1.097.093.239.172.182.24.104.254.042.26-.01.785-.136.27.016.26.088.203.172.437.733.692.785.837.77.14.213.11.25.041.27-.052.265-.161.213-.203.187-.171.208-.047.276.041.172.27.577.432.489.12.254.057.042.395 1.238.042.322.192.484.1.166.14.14.301.24.317.192.666.192.156.068.02-.062.115-.151v.171l1.581.151.494-.15.182-.125.198-.172.156-.218.062-.245-.057-.338-.291-.473-.104-.296.057-.432.348.083.915.505 1.508-.01.416.192.375-.172 1.461.172.442-.12.39-.317.286-.447.135-.49-.015-.28-.12-.473-.016-.265.063-.281.192-.51.042-.312-.12-1.123-.14-.562-.182-.442-.354-.39-.437-.332-.374-.38-.161-.536.078-.135.14-.197.089-.177-.245-.224.104-.312.193-.301.083-.11 1.18-1.102.25-.073 1.16.161.363.006.432-.437-.172-.442-.535-.343-.687-.136-.582-.26.161-.51.614-.384.77.11.363-.204.37.026.384.115.432.062.11-.026.202-.114.135-.026.146.073.239.348.13.088.302-.072.218-.167.182-.041.182.28-.083.11-.031.083-.037.317.338-.25.333-.364.255-.12.171.916.198.385.322.208.442-.089-.02.427-.12.265-.634.816-.411.723-.125.338-.28-.39-.287-.26-.364-.156-.478-.047-.302-.104-.884-.468-.437-.109-.395.063-.707.239-.458.026-.878-.151-.364.099-.23.405.692.182.567.292.375.504.145.8.291.282 1.425.832.5.176.374.032.229.254.182.318.39.244.369-.052.312-.296.223-.416.125-.427.26.172.01.161-.088.161-.036.187-.01.375.01.135.093.146.297.208.062.078-.026 1.03.203.212.562.042.442-.094.806-.343.447-.073.182.052.307.234.239.052.26-.026.468-.12.229-.025.462.036.203.047.213.088.23.14.082.105.052.135.156.224.172.431.005 1.123.052.406.609.89.691.15.78-.333 6.755-4.321.785-.276.801-.124.77.093.572.219 1.383-.687 2.215-.374 1.243.603 3.317.177-.369-3.921-.4-1.654-.687-.78-.15-1.3 1.242-2.927-.369-1.321-1.217-.884-2.048-1.097-1.68-1.67-.874-1.117-3.666.488-.145-.613.213-.822.099-.749.109-.38-.068-1.013-.977-3.547-.021-1.476.359-.812.54-.728.734-.556 1.659-.702 2.579-2.314 1.43-1.919.77-1.487 1.17-1.472.062-1.17-.63-1.404-1.83-1.976-.416-.733-1.071-.977-.66-1.05-.645-1.52-.583-2.12-.29-.672-.354-.358-1.02-.328-.312-.359-.535-.39-.52-.681-.676-1.71-3.245-5.144-.354-1.544-.078-.749.572-1.903.463-.712-.894-1.212-2.153-.822-1.877.125-1.16-.624-1.04-2.584z"/>
            <path d="M475.29 198.864l.218-.868.057-1.956-1.965-6.52-.479-2.87.125-1.358.733-.525.91-.395-.047-.775-.65-.827-.426-.775.094-.785.858-.593.68-1.341-.394-2.642-1.124-2.049-2.5-1.887-1.134-1.15-2.736-2.126-.213-1.997.125-1.851-.473-.739-.182-.743-.328-.37-.567-.145-.213-.624-.208-1.16-.842-.733-.931.161-.473.52-.89.302-2.828.088-.843.151-2.402 1.565-.978.213-.66-.223-1.056.234-1.404-.172-1.31-1.092-1.32-.723-.958.203-.67.338-.775.135-1.467-.192-4.238 2.293.078.749.354 1.544 3.245 5.143.676 1.711.52.681.535.39.312.359 1.02.328.353.358.291.671.583 2.122.645 1.518.66 1.05 1.071.978.416.733 1.83 1.976.63 1.404-.063 1.17-1.17 1.472-.77 1.487 1.524.936 3.776 1.519 1.133-.063.66.083 8.009 7.13.733-.01 2.47.327 1.165-.609 1.066-.94 1.398-.266zM604.27 136.682l-4.274-.51-1.009-1.596-1.341-7.467.176-4.389 2.71-8.174 1.466-2.647 8.528-6.047 2.085-2.05.291-1.679-.738-1.653-6.276-4.826-2.392-.63-5.419 1.394-8.554 4.067-8.793 2.298-7.738 13.052-2.366 1.222-5.517-.125-1.976.37-.38.171v.068l.245 17.555-.572 1.83-1.836 3.204-1.237.863-1.675.177-2.137 1.149-1.154 1.435-.978 4.306-.702 1.913-.827 1.565-1.19 1.451-2.273 1.3-22.77 7.863-6.818-1.566-1.57.052-2.075.812-1.295.826-.951.796-1.394.796-1.55.457-.852.572-.167.848.619 7.831-.192 1.628-.905 3.572-.411 3.068-.229.63.063 1.757.94 3.718 5.476 2.106 3.256 3 2.76 3.365 5.03 12.714 3.572 6.4 3.432 4.223.936 1.664.77 5.45.613 1.487 3.343 2.522 4.368 2.22.952-.42.213-.183 2.174-.265.676-.489-.021-.702-.296-.988-.23-1.414.271-8.07-.697-.479-.691-.848-.51-2.49-1.274-3.35-1.201-2.277-.057-1.237.478-1.826.993-1.892 1.893-2.117 12.095-2.147 2.756.104 1.763.364 4.061-.557 3.646-1.612.322-1.747.276-7.93.956-2.044 11.43-6.042 1.518-1.622 4.478-2.533.988-1.071.468-.712 2.745.488 23.093 9.948.302-.494 1.128-2.902 2.21-3.437.79-2.215 2.866-3.848.354-1.186.197-1.248.489-1.42.047-1.398-.863-1.43-.656-1.425-.036-.775-.63-.717-.327-.588-.156-.567.364-.915.583-.946.176-.785-.104-1.966-.566-.4-1.737-2.736-1.83-1.144-1.394-.624-.515-.405-1.825-1.05-1.404-3.204-1.607-10.878-.853-1.649-.92-1.175zM492.45 80.06l-1.7-.1-1.056-.379-.645-.385-.77-.889-1.243-2.345-2.2-2.376-2.927-1.15-3.302-.28-2.324-1.373-.073 1.123v1.503l-1.217.754-1.731-.219-1.737.645-1.305 1.503-.084 1.716-.265 1.284-1.908.104-.609 1.607-1.128 1.389-1.388.858-.567 1.31.998 1.248.551 1.076.01 1.846-1.86 6.032.004.068 6.183.068 5.169 1.565 12.262 7.316.088-1.128.655-2.106 1.103-1.711.27-1.617-.972-1.773-2.429-3.235-.166-1.123.135-1.201.406-1.586.29-2.434.36-.38.4.183.26.265.463.161 1.284.068 1.191 1.04 3.92 2.397 1.576.546 1.638.036 4.847 1.41 1.742.067 2.449-.806 2.137-1.144 3.422-3.125.691-2.377-.28-2.667-.682-2.975-1.934-1.341-.93-.213-.692.416-1.14.15-1.637-.338-2.465-1.336-1.934-.359-1.53-.65-1.43-.182-1.97 1.56-2.792 3.385z"/>
            <path d="M578.13 42.958l-1.529-1.082-3.255-4.342-.89.733-4.003 6.183-1.779 3.962-.426 2.944-.712 1.861-1.092.51-7.691-1.056-1.83.219-3.765 2.163-3.65 2.865-1.327 1.446-3.042 1.435-1.497.338-1.68-.27-4.217.072-2.169.65-1.788 1.056-1.618 1.622-.759 1.487-.478 1.612-.343 2.148-.848.983-2.205 1.97-.499.729-.265.67-.51.713-.93.832-1.524.821-1.649.536-1.076.15-.697-.39-1.118.38-1.362.79-1.025.287-2.178.239-.318.14.682 2.975.28 2.667-.691 2.377-3.422 3.125-2.137 1.144-2.45.806-1.741-.068-4.847-1.409-1.638-.036-1.575-.546-3.921-2.397-1.19-1.04-1.285-.068-.463-.161-.26-.265-.4-.182-.36.38-.29 2.433-.406 1.586-.135 1.201.166 1.123 2.429 3.235.972 1.773-.27 1.617-1.103 1.71-.655 2.107-.088 1.128.29 1.045-.056 2.138-.583 2.293-.946 2.225-.713 1.03 4.16 2.257 2.106.348 5.897-.374 1.467.229 9.162 3.026 1.118.177 51.36-1.545 1.18.39.526.453.198.26v-.068l.38-.171 1.975-.37 5.517.125 2.366-1.222 7.738-13.052 3.458-4.285 2.777-2.542 2.444-1.456 4.545-1.716.655-.515.915-2.127 3.744-6.448.328-1.851-1.41-1.623-5.1-4.18-.588-1.488-.697-3.218-.406-5.003.317-2.907.869-1.664.582-2.5-.53-2.107-.874-.525-.686-.026-.421.12-3.276.556-1.072-.41-2.048-.354-1.217-.4-2.439-2.107-2.548-2.87-.406-.848.078-.54.406-1.613.11-1.825-.105-.712-.14-.291-.14-.214.135-.395.556-.447 1.253-.374.229-.62-1.05-.441z"/>
            <path d="M526.822 52.047l-.094-.005-.879-.395-.52-.692.167-.02.431-.146-.707.031-.302-.099-.166-.301h1.102l1.259.166.333-.068.592-.234.328-.046.572.176.312.052.27-.14.983-.302 1.529-.192 1.222-.426.047-1.025-1.05.89-1.545.369-8.47.483-.963.161-7.14 1.607-3.556 1.097-3.687 1.103-3.671.749-3.833.733-3.702.915-3.536 1.3-3.983.53-3.833-1.112-3.978-.718-3.837-1.118-6.006-1.19-1.805-.822-3.099-2.205-3.395-1.851-.318-.276-.634-.692-.302-.135-.447-.104-1.024-.697h-.005l-.01.089-.209.686-.733 1.02-1.123.597-.863.864-.474 2.225-1.315 2.366-1.118.723 5.735 4.846 1.191.645 3.484 2.663.25.728.02.53 3.557.707 1.373.546.39.567.817.754.904.395 3.526.785 1.399 1.649 2.324 1.373 3.302.28 2.928 1.15 2.2 2.376 1.242 2.345.77.89.645.384 1.055.38 1.7.099 1.483-.604 2.792-3.385 1.97-1.56 1.43.182 1.53.65 1.934.359 2.465 1.336 1.638.338 1.139-.15.691-.416.931.213 1.934 1.341.318-.14 2.178-.24 1.025-.285 1.362-.79 1.118-.38.697.39 1.076-.151 1.649-.536 1.523-.821.931-.832.51-.713.265-.67.5-.728 2.204-1.971.848-.983.343-2.148.478-1.612.76-1.487 1.617-1.622 1.788-1.056 2.169-.65-.874-1.336-2.277-2.356-4.753-2.88-.749-1.3-.244-.666-.026-.349z"/>
            <path d="M575.733 18.18l-.328-.016-.301-.099-.588-.312-.359-.114-1.097-.01-.317-.105-.837-.488-1.337-.297h-.64l-4.253.895-1.368.057-.525.213-1.596 1.243-.447.229-.442.364-.245.03-.983.334-.468.265-.192.431-.265.104-1.243.234-.416.146-.187.203-.234.499-.156.208-.234.088-.302.052-.26.146-.114.37-.167.285-1.003 1.123-3.235 2.236-.644.702-.281.453-.12.431-.093.541-.354.843.02.572.079.15.255.23.093.176.031.192-.03.65-.063.39-.297.682-.067.416-.099.192-.546.458-1.02.676-.27.254-.426.172-.53.572-.323.15-.473.006-1.31-.286-.49.078-3.64 2.116-.769.255h-.473l-.494-.067-.473.026-.395.265-.4.385-.39.166-.427.02-5.871-.514.203 2.293.099.385.65 1.763.483 2.283.343.988.51.8-.489.916-.062.395.405.161.318.187.12.458-.011 2.782-.146.447-.26.213-2.693.744-.364-.13-.338-.193-3.25-.29v.004l.026.349.244.665.749 1.3 4.753 2.881 2.277 2.356.874 1.336 4.217-.073 1.68.27 1.497-.337 3.042-1.435 1.326-1.446 3.65-2.865 3.765-2.163 1.83-.219 7.692 1.056 1.092-.51.712-1.861.426-2.944 1.779-3.962 4.004-6.183.889-.733.65-.634 1.576-2.793 1.565-.65.655-.603.65-.296.572-.089 2.522-.873 1.186-1.649-.4-1.659-.88-.676-1.014-.504-.733-.868-.047-1.238.437-1.758.021-.644-.255-1.15-.057-.988.14-.774-.145-1.914-.104-.047-.874-.109zM499.88 190.07l-4.794-1.06-1.004-.905-.202-2.335-.328-.686-.37-.057-2.932 1.612-.416.567-.614.275-2.901 1.966-1.612.229-2.09-.5-.079.75.505 1.185.66.676.848.322.946.182 1.238.947.624 1.695-.52 1.721-.437 2.569-1.825 4.545-.167 2.189.219 1.487.01.806-.603.198-1.638.25.64 3.124.01 1.191-.12.25-.55.551-1.056.624-1.196.328-2.283-.593-.801-.489-.478-.614-.552-.114-2.464-1.206-1.753-.437-.322.374.359 2.106.67 1.903.047.567-.296.536.156.546.53.879-.026 1.294-.457.957-5.741 3.365-.915.14-3.61-.213-2.168.53.006.063v1.274l.577 1.799 1.081 1.081 1.31 2.678 1.228.468 4.758.36 2.954.95 1.44 1.613 1.154 2.657 1.519 2.408 1.388 1.456 1.716.64 1.903 1.752 9.662 18.215.5 2.21 3.15 8.929.541.884.952.38.717.426 1.623 1.898 2.917 6.541 2.84 3.505 2.755 2.605 4.3 3.1.588 1.138 1.581 1.503 4.8.426.795.323 1.815 1.487.364.177.374.052 1.566-.4h.556l6.583 1.17 2.241-1.191.583-.947-.245-.712.006-.265.457-1.326.312-1.924.952-1.165 2.225-.775 5.741-.525 1.31.166 1.02.359 1.066-.458 1.965-.452 5.736.811 2.688-.827 1.243-1.18.707-2.158.838-1.331 2.938-1.586 1.976-.51 1.237.073.65-.286.494-.354.37-.592.13-1.378-1.03-1.685-1.82-1.493-.104-.785.104-1.019 1.087-3.978.254-2.746-.572-1.544-6.468-6.276-.115-1.165.707-.51-.005-.691-1.243-3.744-4.352-10.816-1.248-.536-4.93-.452-.967-.62-.51-.52-.467-.831-.245-.947L543 235.54l-.583-1.96v-.49l-4.368-2.22-3.343-2.522-.614-1.487-.77-5.45-.935-1.664-3.432-4.222-3.573-6.401-5.028-12.714-2.761-3.365-3.256-3-5.475-2.106h-.042l-7.342 2.127z"/>
            <path d="M491.846 114.915l-2.106-.348-4.16-2.257-7.259 1.882-1.664-.083-4.649.536-2.048.894-.806.811-.255.76-.645 5.111.447 1.123.614.328-.26 1.55-2.054 4.981-.572 1.02-1.233.005-1.357.431-1.206 1.025-1.347.832-8.97 2.366-3.416 2.033-1.784 1.482-.484 1.03-.088 1.403.052 1.108-2.174 4.384-.12.603-.046.478-.515.307-3.198.905-1.237 1.456-.39 3.042-.983.743-1.716.572-.494.318-.286.52-.135.613.015.25 1.04 2.584 1.16.624 1.877-.125 2.153.822.894 1.212-.463.712-.572 1.903 4.238-2.293 1.467.192.775-.135.67-.338.957-.203 1.321.723 1.31 1.092 1.404.172 1.056-.234.66.223.978-.213 2.402-1.565.843-.15 2.829-.09.889-.3.473-.52.93-.162.843.733.208 1.16.213.624.567.145.328.37.182.743.473.739-.125 1.85.213 1.998 2.736 2.126 1.133 1.15 2.501 1.887 1.124 2.049.395 2.642-.681 1.341-.858.593-.094.785.426.775.65.827.047.775-.91.395-.733.525-.125 1.357.479 2.87 1.965 6.521-.057 1.956-.218.868.15 1.68 1.196 3.078 2.314 2.475 3.011 2.169.437.431 1.638-.25.603-.197-.01-.806-.219-1.487.167-2.19 1.825-4.544.437-2.569.52-1.721-.624-1.695-1.238-.947-.946-.182-.848-.322-.66-.676-.505-1.186.078-.749 2.09.5 1.613-.23 2.901-1.965.614-.275.416-.567 2.933-1.612.369.057.328.686.202 2.335 1.004.905 4.794 1.06 1.597-.004 7.342-2.127h.042l-.941-3.718-.063-1.758.229-.629.41-3.068.906-3.572.192-1.628-.619-7.831.167-.848.852-.572 1.55-.457 1.394-.796.951-.796 1.295-.826 2.075-.812 1.57-.052 6.817 1.566 22.771-7.863 2.273-1.3 1.19-1.45.827-1.566.702-1.913.978-4.306 1.154-1.435 2.137-1.15 1.675-.176 1.237-.863 1.836-3.204.572-1.83-.244-17.555-.198-.26-.525-.453-1.18-.39-51.361 1.545-1.118-.177-9.162-3.026-1.467-.23z"/>
            <path fill-rule="nonzero" d="M454.11 247.541l.14-.374-.062-.427.099-.426-.234-.135-.39-.177-.234-.099-.25.156.156.291.135.484.214.546.213.192.213-.03zm21.939-7.893l-1.519-2.408-1.154-2.657-1.44-1.612-2.954-.952-4.758-.359-1.227-.468-1.31-2.678-1.082-1.081-.577-1.8v-1.273l-.375-.354-.806-.582-2.517-.905-3.317-.177-1.243-.603-2.215.374-1.383.687.176.072.312.219.13.26.115.41.286.505.338.452.301.24-.124.65.494 1.409-.234.842.29.146.126.177-.078.145-.338.042.078.26.02.457.063.302.073.11.837.868.889.546.406.353.514.76.978 1.793.577.832.583.65.312.474.135.494.197.254 1.27.515.701.707.343.479.146.426.187.317 1.134.942.608.925.125.27.01-.738.333.161.416.572.281.51.172.676.109.978.01.962-.156.603.26.473.135.15.208.068-.052.172-.093 1.009-.328-.354-.197.182-.14.411-.152.333-.192.296-.057.302.036.598.193.686.473.421.598.073.572-.338.39-.073 1.68-.104.514.089.078.135.047.208.026.416.078.11.177-.058.197-.104.13-.031.266.223.145.255.177.713.4-.104.208.358.052.567-.072.536-.146.26-.432.39-.156.177-.03.275.098.203.026.177-.229.197-.208-.405-.353-.447-.427-.36-.416-.145-.447.265-.078.609.125.676.177.468 1.014 1.284.16.484.183.26.431.114.869.052.91.213.691.432.552.65.483.9.27 1.06.021 3.126.177.764 1.316 3.26.161.25.712.754.76 1.18.265.323.749.681.442.723.03.65-.472 1.31.104.489.447.463.369.353.811 1.326.328.884.426.609.421 1.456.442-.037.167-.68.515.332.494.832.457.494.92.28.671.094.115.12.073.182.026.234.109.156.25.062 1.861.396.848.13 1.346-.25.827-.198.77-.057.405.255.344.11 1.492-.183 1.024.14.89.37.79.535 2.538 2.366.81.406 3.833.848.79.338.708.561 1.612 1.67.15.249.344.796.171.286.323.27.873.338.344.296.192.567-.265.24-.468.051-.4-.015-.453.041-.359.162-.203.306.037.5.442.468 1.664.738h.005l.348-.676.12-.146.094.006.442-.188.234.016 1.404-.146.353.021 1.061.27 1.004.042.29-.104.932-.54-4.3-3.1-2.757-2.605-2.839-3.505-2.917-6.541-1.623-1.898-.717-.427-.952-.38-.54-.883-3.152-8.929-.499-2.21-9.662-18.215-1.903-1.753-1.716-.64-1.388-1.455z"/>
            <path d="M457.922 193.16l-3.776-1.519-1.523-.936-1.43 1.919-2.58 2.314-1.658.702-.733.556-.541.728-.359.812.02 1.476.978 3.547.068 1.014-.11.38-.098.748-.213.822.145.613 3.666-.488.874 1.118 1.68 1.669 2.048 1.097 1.217.884.37 1.32-1.243 2.928.15 1.3.687.78.4 1.654.37 3.92 2.516.906.806.582.375.354-.006-.063 2.169-.53 3.609.213.915-.14 5.74-3.365.458-.957.026-1.294-.53-.88-.156-.545.296-.536-.047-.567-.67-1.903-.36-2.106.323-.374 1.753.437 2.464 1.206.552.114.478.614.8.489 2.284.593 1.196-.328 1.055-.624.551-.551.12-.25-.01-1.19-.64-3.126-.437-.431-3.01-2.169-2.315-2.475-1.196-3.078-.15-1.68-.734-.052-1.398.265-1.066.941-1.165.609-2.47-.328-.733.01-8.008-7.129-.66-.083z"/>
        </g>
    </g>
</svg>
