<svg xmlns="http://www.w3.org/2000/svg" width="24" height="19" viewBox="0 0 24 19">
    <g fill="none" fill-rule="evenodd">
        <g fill-rule="nonzero">
            <g>
                <path fill="#000" d="M21.183 0H2.811C1.205 0 0 1.293 0 2.785v13.43C0 17.806 1.305 19 2.811 19h18.372c1.607 0 2.812-1.293 2.812-2.785V2.785C24.095 1.293 22.79 0 21.183 0zm1.406 16.215c0 .696-.602 1.293-1.305 1.293H2.91c-.702 0-1.305-.597-1.305-1.293V2.785c0-.696.603-1.293 1.305-1.293h18.373c.703 0 1.305.597 1.305 1.293v13.43z" transform="translate(-1566 -2837) translate(1566 2837)"/>
                <path fill="#F15A22" d="M21 4.1L21 5.8 12.5 11 4 5.8 4 4.1 4 4 12.5 9.3 20.9 4z" transform="translate(-1566 -2837) translate(1566 2837)"/>
            </g>
        </g>
    </g>
</svg>
