<svg xmlns="http://www.w3.org/2000/svg" width="46" height="40" viewBox="0 0 46 40">
    <g fill-rule="evenodd">
        <path fill="#FF5722" d="M45.945 14.596h-3.493V9.209a2.999 2.999 0 0 0-2.063-2.844c-11.556-3.823-23.275-3.823-34.833 0a3 3 0 0 0-2.062 2.847v4.997H0v-5a6.49 6.49 0 0 1 4.46-6.161c12.285-4.064 24.742-4.064 37.025 0a6.488 6.488 0 0 1 4.46 6.158v5.39z"/>
        <path fill="#000" d="M22.973 17.59a7.143 7.143 0 0 0-7.135 7.135c0 3.934 3.201 7.134 7.135 7.134 3.934 0 7.135-3.2 7.135-7.134 0-3.935-3.2-7.135-7.135-7.135zm0 10.776a3.645 3.645 0 0 1-3.64-3.641 3.645 3.645 0 0 1 3.64-3.642 3.646 3.646 0 0 1 3.641 3.642 3.646 3.646 0 0 1-3.64 3.64z"/>
        <path fill="#000" d="M42.12 39.081H3.824l-1.743-1.633c-.45-6.912.028-11.747 1.418-14.37.99-1.869 2.364-3.316 3.693-4.716.778-.82 1.513-1.593 2.161-2.435.858-1.112.952-2.06.952-3.812H13.8c0 2.062-.127 3.933-1.679 5.946-.758.983-1.59 1.859-2.394 2.706-1.22 1.286-2.374 2.5-3.14 3.946-.94 1.775-1.334 5.69-1.108 10.875h34.986c.226-5.184-.167-9.1-1.108-10.875-.766-1.446-1.92-2.661-3.142-3.948-.803-.847-1.634-1.722-2.392-2.704-1.55-2.01-1.677-3.882-1.677-5.946h3.494c0 1.754.094 2.702.95 3.812.648.84 1.382 1.614 2.16 2.432 1.329 1.401 2.704 2.85 3.694 4.719 1.39 2.622 1.868 7.458 1.418 14.37L42.12 39.08z"/>
    </g>
</svg>
