<svg xmlns="http://www.w3.org/2000/svg" viewBox="0 0 42.12 36.23"><defs><style>.cls-1{fill:#00377b;}</style></defs><title>Asset 28</title><g id="Layer_2" data-name="Layer 2"><g id="Layer_1-2" data-name="Layer 1"><path class="cls-1" d="M39.15,5.52H31.29V.93A.91.91,0,0,0,30.39,0H11.72a.91.91,0,0,0-.89.93v4.6H3A3,3,0,0,0,0,8.6V23.33A3,3,0,0,0,3,26.4h7.86v8.91a.91.91,0,0,0,.89.93H30.39a.91.91,0,0,0,.89-.93V26.4h7.86a3,3,0,0,0,3-3.07V8.6A3,3,0,0,0,39.15,5.52ZM31.29,7.37h2.13V10H31.29ZM12.62,1.85H29.5V10H12.62ZM8.7,7.37h2.13V10H8.7Zm20.8,27H12.62V22.2H29.5V34.38ZM40.33,23.33h0a1.2,1.2,0,0,1-1.18,1.22H31.29V22.2h1.63a.93.93,0,0,0,0-1.85H9.2a.93.93,0,0,0,0,1.85h1.63v2.35H3a1.2,1.2,0,0,1-1.18-1.22V8.6A1.2,1.2,0,0,1,3,7.37H6.91v3.51a.91.91,0,0,0,.89.93h26.5a.91.91,0,0,0,.89-.93V7.37h3.95A1.2,1.2,0,0,1,40.33,8.6Z"/></g></g></svg>